<?xml version="1.0" encoding="utf-8"?>
<!-- Generator: Adobe Illustrator 22.1.0, SVG Export Plug-In . SVG Version: 6.00 Build 0)  -->
<svg version="1.1" xmlns="http://www.w3.org/2000/svg" xmlns:xlink="http://www.w3.org/1999/xlink" x="0px" y="0px"
	 viewBox="0 0 325 80" style="enable-background:new 0 0 325 80;" xml:space="preserve">
<style type="text/css">
	.st0{display:none;}
	.st1{display:inline;fill:#FFFFFF;}
	.st2{fill:#FFFFFF;}
	.st3{fill:#D4A951;}
	.st4{fill:#D6AD5B;}
</style>
<g id="Guides">
</g>
<g id="Gradovi">
	<g id="Cheap" class="st0">
		<path class="st1" d="M111.7,69.3h-0.8c-0.3-1.6-1.2-2.4-2.7-2.4c-0.9,0-1.6,0.3-2.1,0.9c-0.5,0.6-0.7,1.6-0.7,2.9v1.2
			c0,1.3,0.2,2.3,0.7,2.9c0.5,0.6,1.1,0.9,2.1,0.9c1.5,0,2.4-0.8,2.7-2.4h0.8c-0.1,1.1-0.5,1.9-1.2,2.4c-0.6,0.5-1.4,0.8-2.4,0.8
			c-2.4,0-3.6-1.5-3.6-4.6v-1.2c0-3.1,1.2-4.6,3.6-4.6c1,0,1.8,0.3,2.4,0.8C111.1,67.5,111.5,68.3,111.7,69.3z"/>
		<path class="st1" d="M115.4,66.2h0.9v4.5h5.1v-4.5h0.9v10.2h-0.9v-4.9h-5.1v4.9h-0.9V66.2z"/>
		<path class="st1" d="M126.6,76.4V66.2h6V67h-5.1v3.7h4.7v0.8h-4.7v4.1h5.1v0.8H126.6z"/>
		<path class="st1" d="M137.1,73.9l-0.8,2.5h-0.9l3.5-10.2h0.8l3.5,10.2h-0.9l-0.8-2.5H137.1z M141.1,73.1l-1.9-5.5l-1.9,5.5H141.1z
			"/>
		<path class="st1" d="M149.6,72.4h-2.2v4h-0.9V66.2h3.1c1.2,0,2.1,0.3,2.7,0.8c0.6,0.5,1,1.3,1,2.3c0,1-0.3,1.7-1,2.3
			C151.7,72.1,150.7,72.4,149.6,72.4z M147.3,67v4.6h2.2c1.9,0,2.9-0.8,2.9-2.3c0-1.5-1-2.3-2.9-2.3H147.3z"/>
		<path class="st1" d="M169.2,69.3h-0.8c-0.3-1.6-1.2-2.4-2.7-2.4c-0.9,0-1.6,0.3-2.1,0.9s-0.7,1.6-0.7,2.9v1.2
			c0,1.3,0.2,2.3,0.7,2.9s1.1,0.9,2.1,0.9c1.5,0,2.4-0.8,2.7-2.4h0.8c-0.1,1.1-0.5,1.9-1.2,2.4s-1.4,0.8-2.4,0.8
			c-2.4,0-3.6-1.5-3.6-4.6v-1.2c0-3.1,1.2-4.6,3.6-4.6c1,0,1.8,0.3,2.4,0.8C168.6,67.5,169,68.3,169.2,69.3z"/>
		<path class="st1" d="M173.3,73.9l-0.8,2.5h-0.9l3.5-10.2h0.8l3.5,10.2h-0.9l-0.8-2.5H173.3z M177.4,73.1l-1.9-5.5l-1.9,5.5H177.4z
			"/>
		<path class="st1" d="M187.4,71.9l2.4,4.5h-1l-2.3-4.4c-0.2,0-0.4,0-0.7,0h-2.3v4.3h-0.9V66.2h3.2c1.2,0,2.1,0.3,2.7,0.8
			c0.6,0.5,0.9,1.2,0.9,2.2C189.5,70.6,188.8,71.5,187.4,71.9z M183.6,67v4.3h2.3c1.9,0,2.8-0.7,2.8-2.1c0-1.4-0.9-2.1-2.8-2.1
			H183.6z"/>
		<path class="st1" d="M203.7,71.9l2.4,4.5h-1l-2.3-4.4c-0.2,0-0.4,0-0.7,0h-2.3v4.3H199V66.2h3.2c1.2,0,2.1,0.3,2.7,0.8
			c0.6,0.5,0.9,1.2,0.9,2.2C205.8,70.6,205.1,71.5,203.7,71.9z M199.8,67v4.3h2.3c1.9,0,2.8-0.7,2.8-2.1c0-1.4-0.9-2.1-2.8-2.1
			H199.8z"/>
		<path class="st1" d="M209.7,76.4V66.2h6V67h-5.1v3.7h4.7v0.8h-4.7v4.1h5.1v0.8H209.7z"/>
		<path class="st1" d="M225.5,74.8v-8.6h0.9v10.2h-0.8l-5.1-8.5v8.5h-0.9V66.2h0.8L225.5,74.8z"/>
		<path class="st1" d="M229.7,67v-0.8h7.3V67h-3.2v9.4h-0.9V67H229.7z"/>
		<path class="st1" d="M240.4,73.9l-0.8,2.5h-0.9l3.5-10.2h0.8l3.5,10.2h-0.9l-0.8-2.5H240.4z M244.4,73.1l-1.9-5.5l-1.9,5.5H244.4z
			"/>
		<path class="st1" d="M249.8,66.2h0.9v9.4h5.1v0.8h-6V66.2z"/>
		<path class="st1" d="M267.6,76.4h-3.1V66.2h3.1c1.2,0,2.1,0.4,2.8,1.1c0.6,0.7,0.9,1.9,0.9,3.4v1.2c0,1.6-0.3,2.7-0.9,3.4
			C269.8,76,268.8,76.4,267.6,76.4z M265.4,75.6h2.2c1,0,1.7-0.3,2.1-0.9c0.5-0.6,0.7-1.5,0.7-2.8v-1.2c0-1.3-0.2-2.3-0.7-2.8
			c-0.5-0.6-1.2-0.9-2.1-0.9h-2.2V75.6z"/>
		<path class="st1" d="M275.3,72.2v-6h0.9v6c0,2.3,0.9,3.5,2.8,3.5c1.8,0,2.8-1.2,2.8-3.5v-6h0.9v6c0,1.4-0.3,2.5-0.9,3.2
			c-0.6,0.7-1.5,1.1-2.7,1.1c-1.2,0-2.1-0.4-2.7-1.1C275.6,74.7,275.3,73.7,275.3,72.2z"/>
		<path class="st1" d="M287,76.4V66.2h3c2.3,0,3.5,0.9,3.5,2.6c0,0.6-0.2,1-0.5,1.5c-0.3,0.4-0.8,0.7-1.3,0.8
			c0.7,0.1,1.2,0.4,1.5,0.9s0.5,1,0.5,1.6c0,0.8-0.3,1.5-0.8,2c-0.6,0.6-1.4,0.8-2.6,0.8H287z M290,67h-2.2v3.7h2.4
			c0.8,0,1.4-0.2,1.8-0.5s0.6-0.8,0.6-1.4c0-0.6-0.2-1-0.6-1.3C291.6,67.2,291,67,290,67z M290.1,71.5h-2.2v4.1h2.5
			c0.8,0,1.5-0.2,1.9-0.5s0.7-0.9,0.7-1.5C293,72.2,292,71.5,290.1,71.5z"/>
		<path class="st1" d="M298.2,73.9l-0.8,2.5h-0.9l3.5-10.2h0.8l3.5,10.2h-0.9l-0.8-2.5H298.2z M302.2,73.1l-1.9-5.5l-1.9,5.5H302.2z
			"/>
		<path class="st1" d="M307.8,66.2h0.9v10.2h-0.9V66.2z"/>
	</g>
	<g id="Monthly" class="st0">
		<path class="st1" d="M104.5,66.2h0.8l3.4,6.8l3.4-6.8h0.8v10.2h-0.9v-8.3l-3,6h-0.8l-3-6v8.3h-0.9V66.2z"/>
		<path class="st1" d="M123.3,70.7v1.2c0,1.5-0.3,2.7-0.9,3.4c-0.6,0.8-1.5,1.1-2.7,1.1s-2.1-0.4-2.7-1.1c-0.6-0.8-0.9-1.9-0.9-3.4
			v-1.2c0-1.5,0.3-2.7,0.9-3.4c0.6-0.8,1.5-1.2,2.7-1.2s2.1,0.4,2.7,1.2C123,68,123.3,69.2,123.3,70.7z M116.9,70.7v1.2
			c0,2.5,0.9,3.8,2.8,3.8c1.8,0,2.8-1.3,2.8-3.8v-1.2c0-2.5-0.9-3.8-2.8-3.8C117.8,66.9,116.9,68.2,116.9,70.7z"/>
		<path class="st1" d="M132.2,74.8v-8.6h0.9v10.2h-0.8l-5.1-8.5v8.5h-0.9V66.2h0.8L132.2,74.8z"/>
		<path class="st1" d="M135.5,67v-0.8h7.3V67h-3.2v9.4h-0.9V67H135.5z"/>
		<path class="st1" d="M145.2,66.2h0.9v4.5h5.1v-4.5h0.9v10.2h-0.9v-4.9h-5.1v4.9h-0.9V66.2z"/>
		<path class="st1" d="M155.6,66.2h0.9v9.4h5.1v0.8h-6V66.2z"/>
		<path class="st1" d="M164.9,71.9l-3.3-5.7h1l2.7,4.8l2.7-4.8h1l-3.3,5.7v4.5h-0.9V71.9z"/>
		<path class="st1" d="M182.9,69.3h-0.8c-0.3-1.6-1.2-2.4-2.7-2.4c-0.9,0-1.6,0.3-2.1,0.9s-0.7,1.6-0.7,2.9v1.2
			c0,1.3,0.2,2.3,0.7,2.9s1.1,0.9,2.1,0.9c1.5,0,2.4-0.8,2.7-2.4h0.8c-0.1,1.1-0.5,1.9-1.2,2.4s-1.4,0.8-2.4,0.8
			c-2.4,0-3.6-1.5-3.6-4.6v-1.2c0-3.1,1.2-4.6,3.6-4.6c1,0,1.8,0.3,2.4,0.8C182.4,67.5,182.8,68.3,182.9,69.3z"/>
		<path class="st1" d="M186.2,73.9l-0.8,2.5h-0.9l3.5-10.2h0.8l3.5,10.2h-0.9l-0.8-2.5H186.2z M190.2,73.1l-1.9-5.5l-1.9,5.5H190.2z
			"/>
		<path class="st1" d="M199.3,71.9l2.4,4.5h-1l-2.3-4.4c-0.2,0-0.4,0-0.7,0h-2.3v4.3h-0.9V66.2h3.2c1.2,0,2.1,0.3,2.7,0.8
			c0.6,0.5,0.9,1.2,0.9,2.2C201.4,70.6,200.7,71.5,199.3,71.9z M195.5,67v4.3h2.3c1.9,0,2.8-0.7,2.8-2.1c0-1.4-0.9-2.1-2.8-2.1
			H195.5z"/>
		<path class="st1" d="M213.8,71.9l2.4,4.5h-1l-2.3-4.4c-0.2,0-0.4,0-0.7,0H210v4.3h-0.9V66.2h3.2c1.2,0,2.1,0.3,2.7,0.8
			c0.6,0.5,0.9,1.2,0.9,2.2C215.9,70.6,215.2,71.5,213.8,71.9z M210,67v4.3h2.3c1.9,0,2.8-0.7,2.8-2.1c0-1.4-0.9-2.1-2.8-2.1H210z"
			/>
		<path class="st1" d="M219,76.4V66.2h6V67h-5.1v3.7h4.7v0.8h-4.7v4.1h5.1v0.8H219z"/>
		<path class="st1" d="M233.8,74.8v-8.6h0.9v10.2h-0.8l-5.1-8.5v8.5h-0.9V66.2h0.8L233.8,74.8z"/>
		<path class="st1" d="M237.1,67v-0.8h7.3V67h-3.2v9.4h-0.9V67H237.1z"/>
		<path class="st1" d="M246.9,73.9l-0.8,2.5h-0.9l3.5-10.2h0.8l3.5,10.2H252l-0.8-2.5H246.9z M250.9,73.1l-1.9-5.5l-1.9,5.5H250.9z"
			/>
		<path class="st1" d="M255.4,66.2h0.9v9.4h5.1v0.8h-6V66.2z"/>
		<path class="st1" d="M271.4,76.4h-3.1V66.2h3.1c1.2,0,2.1,0.4,2.8,1.1c0.6,0.7,0.9,1.9,0.9,3.4v1.2c0,1.6-0.3,2.7-0.9,3.4
			C273.6,76,272.6,76.4,271.4,76.4z M269.2,75.6h2.2c1,0,1.7-0.3,2.1-0.9c0.5-0.6,0.7-1.5,0.7-2.8v-1.2c0-1.3-0.2-2.3-0.7-2.8
			c-0.5-0.6-1.2-0.9-2.1-0.9h-2.2V75.6z"/>
		<path class="st1" d="M278.2,72.2v-6h0.9v6c0,2.3,0.9,3.5,2.8,3.5c1.8,0,2.8-1.2,2.8-3.5v-6h0.9v6c0,1.4-0.3,2.5-0.9,3.2
			c-0.6,0.7-1.5,1.1-2.7,1.1c-1.2,0-2.1-0.4-2.7-1.1C278.5,74.7,278.2,73.7,278.2,72.2z"/>
		<path class="st1" d="M289,76.4V66.2h3c2.3,0,3.5,0.9,3.5,2.6c0,0.6-0.2,1-0.5,1.5c-0.3,0.4-0.8,0.7-1.3,0.8
			c0.7,0.1,1.2,0.4,1.5,0.9s0.5,1,0.5,1.6c0,0.8-0.3,1.5-0.8,2c-0.6,0.6-1.4,0.8-2.6,0.8H289z M292,67h-2.2v3.7h2.4
			c0.8,0,1.4-0.2,1.8-0.5s0.6-0.8,0.6-1.4c0-0.6-0.2-1-0.6-1.3C293.6,67.2,293,67,292,67z M292.1,71.5h-2.2v4.1h2.5
			c0.8,0,1.5-0.2,1.9-0.5s0.7-0.9,0.7-1.5C295,72.2,294,71.5,292.1,71.5z"/>
		<path class="st1" d="M299.3,73.9l-0.8,2.5h-0.9l3.5-10.2h0.8l3.5,10.2h-0.9l-0.8-2.5H299.3z M303.4,73.1l-1.9-5.5l-1.9,5.5H303.4z
			"/>
		<path class="st1" d="M308,66.2h0.9v10.2H308V66.2z"/>
	</g>
	<g id="Luxury" class="st0">
		<path class="st1" d="M104.5,66.2h0.9v9.4h5.1v0.8h-6V66.2z"/>
		<path class="st1" d="M113.3,72.2v-6h0.9v6c0,2.3,0.9,3.5,2.8,3.5c1.8,0,2.8-1.2,2.8-3.5v-6h0.9v6c0,1.4-0.3,2.5-0.9,3.2
			c-0.6,0.7-1.5,1.1-2.7,1.1s-2.1-0.4-2.7-1.1C113.6,74.7,113.3,73.7,113.3,72.2z"/>
		<path class="st1" d="M127.3,72l-2.7,4.4h-1l3.2-5.3l-2.9-4.9h1l2.4,4.1l2.4-4.1h1l-2.9,4.9l3.2,5.3h-1L127.3,72z"/>
		<path class="st1" d="M134,72.2v-6h0.9v6c0,2.3,0.9,3.5,2.8,3.5c1.8,0,2.8-1.2,2.8-3.5v-6h0.9v6c0,1.4-0.3,2.5-0.9,3.2
			c-0.6,0.7-1.5,1.1-2.7,1.1s-2.1-0.4-2.7-1.1C134.3,74.7,134,73.7,134,72.2z"/>
		<path class="st1" d="M150,71.9l2.4,4.5h-1l-2.3-4.4c-0.2,0-0.4,0-0.7,0h-2.3v4.3h-0.9V66.2h3.2c1.2,0,2.1,0.3,2.7,0.8
			c0.6,0.5,0.9,1.2,0.9,2.2C152.1,70.6,151.4,71.5,150,71.9z M146.1,67v4.3h2.3c1.9,0,2.8-0.7,2.8-2.1c0-1.4-0.9-2.1-2.8-2.1H146.1z
			"/>
		<path class="st1" d="M157.4,71.9l-3.3-5.7h1l2.7,4.8l2.7-4.8h1l-3.3,5.7v4.5h-0.9V71.9z"/>
		<path class="st1" d="M176.3,69.3h-0.8c-0.3-1.6-1.2-2.4-2.7-2.4c-0.9,0-1.6,0.3-2.1,0.9s-0.7,1.6-0.7,2.9v1.2
			c0,1.3,0.2,2.3,0.7,2.9s1.1,0.9,2.1,0.9c1.5,0,2.4-0.8,2.7-2.4h0.8c-0.1,1.1-0.5,1.9-1.2,2.4s-1.4,0.8-2.4,0.8
			c-2.4,0-3.6-1.5-3.6-4.6v-1.2c0-3.1,1.2-4.6,3.6-4.6c1,0,1.8,0.3,2.4,0.8C175.7,67.5,176.1,68.3,176.3,69.3z"/>
		<path class="st1" d="M179.9,73.9l-0.8,2.5h-0.9l3.5-10.2h0.8l3.5,10.2h-0.9l-0.8-2.5H179.9z M184,73.1l-1.9-5.5l-1.9,5.5H184z"/>
		<path class="st1" d="M193.6,71.9l2.4,4.5h-1l-2.3-4.4c-0.2,0-0.4,0-0.7,0h-2.3v4.3h-0.9V66.2h3.2c1.2,0,2.1,0.3,2.7,0.8
			c0.6,0.5,0.9,1.2,0.9,2.2C195.7,70.6,195,71.5,193.6,71.9z M189.7,67v4.3h2.3c1.9,0,2.8-0.7,2.8-2.1c0-1.4-0.9-2.1-2.8-2.1H189.7z
			"/>
		<path class="st1" d="M208.9,71.9l2.4,4.5h-1l-2.3-4.4c-0.2,0-0.4,0-0.7,0H205v4.3h-0.9V66.2h3.2c1.2,0,2.1,0.3,2.7,0.8
			c0.6,0.5,0.9,1.2,0.9,2.2C211,70.6,210.3,71.5,208.9,71.9z M205,67v4.3h2.3c1.9,0,2.8-0.7,2.8-2.1c0-1.4-0.9-2.1-2.8-2.1H205z"/>
		<path class="st1" d="M214.5,76.4V66.2h6V67h-5.1v3.7h4.7v0.8h-4.7v4.1h5.1v0.8H214.5z"/>
		<path class="st1" d="M229.7,74.8v-8.6h0.9v10.2h-0.8l-5.1-8.5v8.5h-0.9V66.2h0.8L229.7,74.8z"/>
		<path class="st1" d="M233.4,67v-0.8h7.3V67h-3.2v9.4h-0.9V67H233.4z"/>
		<path class="st1" d="M243.7,73.9l-0.8,2.5h-0.9l3.5-10.2h0.8l3.5,10.2h-0.9l-0.8-2.5H243.7z M247.7,73.1l-1.9-5.5l-1.9,5.5H247.7z
			"/>
		<path class="st1" d="M252.6,66.2h0.9v9.4h5.1v0.8h-6V66.2z"/>
		<path class="st1" d="M269.5,76.4h-3.1V66.2h3.1c1.2,0,2.1,0.4,2.8,1.1c0.6,0.7,0.9,1.9,0.9,3.4v1.2c0,1.6-0.3,2.7-0.9,3.4
			C271.6,76,270.7,76.4,269.5,76.4z M267.2,75.6h2.2c1,0,1.7-0.3,2.1-0.9c0.5-0.6,0.7-1.5,0.7-2.8v-1.2c0-1.3-0.2-2.3-0.7-2.8
			c-0.5-0.6-1.2-0.9-2.1-0.9h-2.2V75.6z"/>
		<path class="st1" d="M276.7,72.2v-6h0.9v6c0,2.3,0.9,3.5,2.8,3.5c1.8,0,2.8-1.2,2.8-3.5v-6h0.9v6c0,1.4-0.3,2.5-0.9,3.2
			c-0.6,0.7-1.5,1.1-2.7,1.1c-1.2,0-2.1-0.4-2.7-1.1C277,74.7,276.7,73.7,276.7,72.2z"/>
		<path class="st1" d="M287.9,76.4V66.2h3c2.3,0,3.5,0.9,3.5,2.6c0,0.6-0.2,1-0.5,1.5c-0.3,0.4-0.8,0.7-1.3,0.8
			c0.7,0.1,1.2,0.4,1.5,0.9s0.5,1,0.5,1.6c0,0.8-0.3,1.5-0.8,2c-0.6,0.6-1.4,0.8-2.6,0.8H287.9z M290.9,67h-2.2v3.7h2.4
			c0.8,0,1.4-0.2,1.8-0.5s0.6-0.8,0.6-1.4c0-0.6-0.2-1-0.6-1.3C292.5,67.2,291.9,67,290.9,67z M291,71.5h-2.2v4.1h2.5
			c0.8,0,1.5-0.2,1.9-0.5s0.7-0.9,0.7-1.5C293.9,72.2,292.9,71.5,291,71.5z"/>
		<path class="st1" d="M298.7,73.9l-0.8,2.5h-0.9l3.5-10.2h0.8l3.5,10.2h-0.9l-0.8-2.5H298.7z M302.7,73.1l-1.9-5.5l-1.9,5.5H302.7z
			"/>
		<path class="st1" d="M307.7,66.2h0.9v10.2h-0.9V66.2z"/>
	</g>
	<g id="Lambo" class="st0">
		<path class="st1" d="M104.4,66.2h0.9v9.4h5.1v0.8h-6V66.2z"/>
		<path class="st1" d="M113.5,73.9l-0.8,2.5h-0.9l3.5-10.2h0.8l3.5,10.2h-0.9l-0.8-2.5H113.5z M117.5,73.1l-1.9-5.5l-1.9,5.5H117.5z
			"/>
		<path class="st1" d="M122,66.2h0.8l3.4,6.8l3.4-6.8h0.8v10.2h-0.9v-8.3l-3,6h-0.8l-3-6v8.3H122V66.2z"/>
		<path class="st1" d="M134.1,76.4V66.2h3c2.3,0,3.5,0.9,3.5,2.6c0,0.6-0.2,1-0.5,1.5c-0.3,0.4-0.8,0.7-1.3,0.8
			c0.7,0.1,1.2,0.4,1.5,0.9s0.5,1,0.5,1.6c0,0.8-0.3,1.5-0.8,2c-0.6,0.6-1.4,0.8-2.6,0.8H134.1z M137.1,67h-2.2v3.7h2.4
			c0.8,0,1.4-0.2,1.8-0.5c0.4-0.3,0.6-0.8,0.6-1.4c0-0.6-0.2-1-0.6-1.3C138.7,67.2,138,67,137.1,67z M137.1,71.5h-2.2v4.1h2.5
			c0.8,0,1.5-0.2,1.9-0.5s0.7-0.9,0.7-1.5C140,72.2,139.1,71.5,137.1,71.5z"/>
		<path class="st1" d="M150.6,70.7v1.2c0,1.5-0.3,2.7-0.9,3.4c-0.6,0.8-1.5,1.1-2.7,1.1c-1.2,0-2.1-0.4-2.7-1.1
			c-0.6-0.8-0.9-1.9-0.9-3.4v-1.2c0-1.5,0.3-2.7,0.9-3.4c0.6-0.8,1.5-1.2,2.7-1.2c1.2,0,2.1,0.4,2.7,1.2
			C150.2,68,150.6,69.2,150.6,70.7z M144.2,70.7v1.2c0,2.5,0.9,3.8,2.8,3.8c1.8,0,2.8-1.3,2.8-3.8v-1.2c0-2.5-0.9-3.8-2.8-3.8
			C145.1,66.9,144.2,68.2,144.2,70.7z"/>
		<path class="st1" d="M158.4,71.9l2.4,4.5h-1l-2.3-4.4c-0.2,0-0.4,0-0.7,0h-2.3v4.3h-0.9V66.2h3.2c1.2,0,2.1,0.3,2.7,0.8
			c0.6,0.5,0.9,1.2,0.9,2.2C160.5,70.6,159.8,71.5,158.4,71.9z M154.5,67v4.3h2.3c1.9,0,2.8-0.7,2.8-2.1c0-1.4-0.9-2.1-2.8-2.1
			H154.5z"/>
		<path class="st1" d="M166.7,72.2v-0.8h3.6v0.4c0,1.6-0.3,2.7-0.9,3.5c-0.6,0.8-1.5,1.2-2.7,1.2c-2.4,0-3.6-1.5-3.6-4.6v-1.2
			c0-3.1,1.2-4.6,3.6-4.6c1,0,1.8,0.3,2.4,0.8c0.6,0.5,1,1.3,1.2,2.4h-0.8c-0.3-1.6-1.2-2.4-2.7-2.4c-0.9,0-1.6,0.3-2.1,0.9
			s-0.7,1.6-0.7,2.9v1.2c0,1.3,0.2,2.3,0.7,2.9s1.1,0.9,2.1,0.9c1.8,0,2.7-1.2,2.8-3.5H166.7z"/>
		<path class="st1" d="M173.5,66.2h0.9v4.5h5.1v-4.5h0.9v10.2h-0.9v-4.9h-5.1v4.9h-0.9V66.2z"/>
		<path class="st1" d="M184,66.2h0.9v10.2H184V66.2z"/>
		<path class="st1" d="M194.6,74.8v-8.6h0.9v10.2h-0.8l-5.1-8.5v8.5h-0.9V66.2h0.8L194.6,74.8z"/>
		<path class="st1" d="M199.2,66.2h0.9v10.2h-0.9V66.2z"/>
		<path class="st1" d="M213.2,71.9l2.4,4.5h-1l-2.3-4.4c-0.2,0-0.4,0-0.7,0h-2.3v4.3h-0.9V66.2h3.2c1.2,0,2.1,0.3,2.7,0.8
			c0.6,0.5,0.9,1.2,0.9,2.2C215.3,70.6,214.6,71.5,213.2,71.9z M209.4,67v4.3h2.3c1.9,0,2.8-0.7,2.8-2.1c0-1.4-0.9-2.1-2.8-2.1
			H209.4z"/>
		<path class="st1" d="M218.4,76.4V66.2h6V67h-5.1v3.7h4.7v0.8h-4.7v4.1h5.1v0.8H218.4z"/>
		<path class="st1" d="M233.3,74.8v-8.6h0.9v10.2h-0.8l-5.1-8.5v8.5h-0.9V66.2h0.8L233.3,74.8z"/>
		<path class="st1" d="M236.6,67v-0.8h7.3V67h-3.2v9.4h-0.9V67H236.6z"/>
		<path class="st1" d="M246.5,73.9l-0.8,2.5h-0.9l3.5-10.2h0.8l3.5,10.2h-0.9l-0.8-2.5H246.5z M250.5,73.1l-1.9-5.5l-1.9,5.5H250.5z
			"/>
		<path class="st1" d="M255,66.2h0.9v9.4h5.1v0.8h-6V66.2z"/>
		<path class="st1" d="M271.1,76.4H268V66.2h3.1c1.2,0,2.1,0.4,2.8,1.1c0.6,0.7,0.9,1.9,0.9,3.4v1.2c0,1.6-0.3,2.7-0.9,3.4
			C273.3,76,272.3,76.4,271.1,76.4z M268.9,75.6h2.2c1,0,1.7-0.3,2.1-0.9c0.5-0.6,0.7-1.5,0.7-2.8v-1.2c0-1.3-0.2-2.3-0.7-2.8
			c-0.5-0.6-1.2-0.9-2.1-0.9h-2.2V75.6z"/>
		<path class="st1" d="M277.9,72.2v-6h0.9v6c0,2.3,0.9,3.5,2.8,3.5c1.8,0,2.8-1.2,2.8-3.5v-6h0.9v6c0,1.4-0.3,2.5-0.9,3.2
			c-0.6,0.7-1.5,1.1-2.7,1.1c-1.2,0-2.1-0.4-2.7-1.1C278.2,74.7,277.9,73.7,277.9,72.2z"/>
		<path class="st1" d="M288.8,76.4V66.2h3c2.3,0,3.5,0.9,3.5,2.6c0,0.6-0.2,1-0.5,1.5c-0.3,0.4-0.8,0.7-1.3,0.8
			c0.7,0.1,1.2,0.4,1.5,0.9s0.5,1,0.5,1.6c0,0.8-0.3,1.5-0.8,2c-0.6,0.6-1.4,0.8-2.6,0.8H288.8z M291.8,67h-2.2v3.7h2.4
			c0.8,0,1.4-0.2,1.8-0.5s0.6-0.8,0.6-1.4c0-0.6-0.2-1-0.6-1.3C293.4,67.2,292.8,67,291.8,67z M291.9,71.5h-2.2v4.1h2.5
			c0.8,0,1.5-0.2,1.9-0.5s0.7-0.9,0.7-1.5C294.8,72.2,293.8,71.5,291.9,71.5z"/>
		<path class="st1" d="M299.2,73.9l-0.8,2.5h-0.9l3.5-10.2h0.8l3.5,10.2h-0.9l-0.8-2.5H299.2z M303.2,73.1l-1.9-5.5l-1.9,5.5H303.2z
			"/>
		<path class="st1" d="M307.8,66.2h0.9v10.2h-0.9V66.2z"/>
	</g>
	<g id="Dubai" class="st0">
		<path class="st1" d="M109.1,71.9l2.4,4.5h-1l-2.3-4.4c-0.2,0-0.4,0-0.7,0h-2.3v4.3h-0.9V66.2h3.2c1.2,0,2.1,0.3,2.7,0.8
			c0.6,0.5,0.9,1.2,0.9,2.2C111.2,70.6,110.5,71.5,109.1,71.9z M105.3,67v4.3h2.3c1.9,0,2.8-0.7,2.8-2.1c0-1.4-0.9-2.1-2.8-2.1
			H105.3z"/>
		<path class="st1" d="M119.3,76.4V66.2h6V67h-5.1v3.7h4.7v0.8h-4.7v4.1h5.1v0.8H119.3z"/>
		<path class="st1" d="M139.1,74.8v-8.6h0.9v10.2h-0.8l-5.1-8.5v8.5h-0.9V66.2h0.8L139.1,74.8z"/>
		<path class="st1" d="M147.4,67v-0.8h7.3V67h-3.2v9.4h-0.9V67H147.4z"/>
		<path class="st1" d="M172.3,73.9l-0.8,2.5h-0.9l3.5-10.2h0.8l3.5,10.2h-0.9l-0.8-2.5H172.3z M176.3,73.1l-1.9-5.5l-1.9,5.5H176.3z
			"/>
		<path class="st1" d="M202.1,69.3h-0.8c-0.3-1.6-1.2-2.4-2.7-2.4c-0.9,0-1.6,0.3-2.1,0.9s-0.7,1.6-0.7,2.9v1.2
			c0,1.3,0.2,2.3,0.7,2.9s1.1,0.9,2.1,0.9c1.5,0,2.4-0.8,2.7-2.4h0.8c-0.1,1.1-0.5,1.9-1.2,2.4s-1.4,0.8-2.4,0.8
			c-2.4,0-3.6-1.5-3.6-4.6v-1.2c0-3.1,1.2-4.6,3.6-4.6c1,0,1.8,0.3,2.4,0.8C201.5,67.5,201.9,68.3,202.1,69.3z"/>
		<path class="st1" d="M210.3,73.9l-0.8,2.5h-0.9l3.5-10.2h0.8l3.5,10.2h-0.9l-0.8-2.5H210.3z M214.3,73.1l-1.9-5.5l-1.9,5.5H214.3z
			"/>
		<path class="st1" d="M228.5,71.9l2.4,4.5h-1l-2.3-4.4c-0.2,0-0.4,0-0.7,0h-2.3v4.3h-0.9V66.2h3.2c1.2,0,2.1,0.3,2.7,0.8
			c0.6,0.5,0.9,1.2,0.9,2.2C230.6,70.6,229.9,71.5,228.5,71.9z M224.6,67v4.3h2.3c1.9,0,2.8-0.7,2.8-2.1c0-1.4-0.9-2.1-2.8-2.1
			H224.6z"/>
		<path class="st1" d="M251.4,76.4h-3.1V66.2h3.1c1.2,0,2.1,0.4,2.8,1.1c0.6,0.7,0.9,1.9,0.9,3.4v1.2c0,1.6-0.3,2.7-0.9,3.4
			C253.5,76,252.6,76.4,251.4,76.4z M249.1,75.6h2.2c1,0,1.7-0.3,2.1-0.9c0.5-0.6,0.7-1.5,0.7-2.8v-1.2c0-1.3-0.2-2.3-0.7-2.8
			c-0.5-0.6-1.2-0.9-2.1-0.9h-2.2V75.6z"/>
		<path class="st1" d="M263.1,72.2v-6h0.9v6c0,2.3,0.9,3.5,2.8,3.5c1.8,0,2.8-1.2,2.8-3.5v-6h0.9v6c0,1.4-0.3,2.5-0.9,3.2
			c-0.6,0.7-1.5,1.1-2.7,1.1c-1.2,0-2.1-0.4-2.7-1.1C263.4,74.7,263.1,73.7,263.1,72.2z"/>
		<path class="st1" d="M278.9,76.4V66.2h3c2.3,0,3.5,0.9,3.5,2.6c0,0.6-0.2,1-0.5,1.5c-0.3,0.4-0.8,0.7-1.3,0.8
			c0.7,0.1,1.2,0.4,1.5,0.9s0.5,1,0.5,1.6c0,0.8-0.3,1.5-0.8,2c-0.6,0.6-1.4,0.8-2.6,0.8H278.9z M281.9,67h-2.2v3.7h2.4
			c0.8,0,1.4-0.2,1.8-0.5s0.6-0.8,0.6-1.4c0-0.6-0.2-1-0.6-1.3C283.5,67.2,282.9,67,281.9,67z M282,71.5h-2.2v4.1h2.5
			c0.8,0,1.5-0.2,1.9-0.5s0.7-0.9,0.7-1.5C284.9,72.2,283.9,71.5,282,71.5z"/>
		<path class="st1" d="M294.2,73.9l-0.8,2.5h-0.9l3.5-10.2h0.8l3.5,10.2h-0.9l-0.8-2.5H294.2z M298.3,73.1l-1.9-5.5l-1.9,5.5H298.3z
			"/>
		<path class="st1" d="M307.9,66.2h0.9v10.2h-0.9V66.2z"/>
	</g>
	<g id="Kombi" class="st0">
		<path class="st1" d="M104.6,66.2h0.9v10.2h-0.9V66.2z"/>
		<path class="st1" d="M106.5,67v-0.8h6.5v0.6l-5.4,8.8h5.5v0.8h-6.6v-0.6l5.4-8.8H106.5z"/>
		<path class="st1" d="M120,74.8v-8.6h0.9v10.2H120l-5.1-8.5v8.5H114V66.2h0.8L120,74.8z"/>
		<path class="st1" d="M123.2,73.9l-0.8,2.5h-0.9l3.5-10.2h0.8l3.5,10.2h-0.9l-0.8-2.5H123.2z M127.2,73.1l-1.9-5.5l-1.9,5.5H127.2z
			"/>
		<path class="st1" d="M128.7,75.2l0.7-0.4c0.4,0.6,1.1,0.9,1.9,0.9c0.9,0,1.5-0.3,1.9-0.8c0.4-0.6,0.6-1.5,0.6-2.7v-6h0.9v6
			c0,2.9-1.1,4.3-3.4,4.3C130.1,76.5,129.2,76.1,128.7,75.2z"/>
		<path class="st1" d="M136.4,66.2h0.8l3.4,6.8l3.4-6.8h0.8v10.2H144v-8.3l-3,6h-0.8l-3-6v8.3h-0.9V66.2z"/>
		<path class="st1" d="M146.6,66.2h0.9v9.4h5.1v0.8h-6V66.2z"/>
		<path class="st1" d="M152,75.2l0.7-0.4c0.4,0.6,1.1,0.9,1.9,0.9c0.9,0,1.5-0.3,1.9-0.8c0.4-0.6,0.6-1.5,0.6-2.7v-6h0.9v6
			c0,2.9-1.1,4.3-3.4,4.3C153.4,76.5,152.5,76.1,152,75.2z"/>
		<path class="st1" d="M159.9,66.2h0.9v10.2h-0.9V66.2z"/>
		<path class="st1" d="M165.2,76.4l-3.7-10.2h0.9l3.1,8.8l3.2-8.8h0.9L166,76.4H165.2z"/>
		<path class="st1" d="M170.3,73.9l-0.8,2.5h-0.9l3.5-10.2h0.8l3.5,10.2h-0.9l-0.8-2.5H170.3z M174.3,73.1l-1.9-5.5l-1.9,5.5H174.3z
			"/>
		<path class="st1" d="M182.9,74.8v-8.6h0.9v10.2h-0.8l-5.1-8.5v8.5H177V66.2h0.8L182.9,74.8z"/>
		<path class="st1" d="M184.3,75.2l0.7-0.4c0.4,0.6,1.1,0.9,1.9,0.9c0.9,0,1.5-0.3,1.9-0.8s0.6-1.5,0.6-2.7v-6h0.9v6
			c0,2.9-1.1,4.3-3.4,4.3C185.7,76.5,184.9,76.1,184.3,75.2z"/>
		<path class="st1" d="M192.1,76.4V66.2h6V67h-5.1v3.7h4.7v0.8h-4.7v4.1h5.1v0.8H192.1z"/>
		<path class="st1" d="M205.5,70.3l4.2,6.1h-1L205,71l-2.1,2.5v3H202V66.2h0.9v5.9l5-5.9h1.1L205.5,70.3z"/>
		<path class="st1" d="M216.8,70.7v1.2c0,1.5-0.3,2.7-0.9,3.4c-0.6,0.8-1.5,1.1-2.7,1.1s-2.1-0.4-2.7-1.1c-0.6-0.8-0.9-1.9-0.9-3.4
			v-1.2c0-1.5,0.3-2.7,0.9-3.4c0.6-0.8,1.5-1.2,2.7-1.2s2.1,0.4,2.7,1.2C216.5,68,216.8,69.2,216.8,70.7z M210.4,70.7v1.2
			c0,2.5,0.9,3.8,2.8,3.8c1.8,0,2.8-1.3,2.8-3.8v-1.2c0-2.5-0.9-3.8-2.8-3.8C211.4,66.9,210.4,68.2,210.4,70.7z"/>
		<path class="st1" d="M218.1,66.2h0.8l3.4,6.8l3.4-6.8h0.8v10.2h-0.9v-8.3l-3,6h-0.8l-3-6v8.3h-0.9V66.2z"/>
		<path class="st1" d="M228.3,76.4V66.2h3c2.3,0,3.5,0.9,3.5,2.6c0,0.6-0.2,1-0.5,1.5c-0.3,0.4-0.8,0.7-1.3,0.8
			c0.7,0.1,1.2,0.4,1.5,0.9s0.5,1,0.5,1.6c0,0.8-0.3,1.5-0.8,2c-0.6,0.6-1.4,0.8-2.6,0.8H228.3z M231.3,67h-2.2v3.7h2.4
			c0.8,0,1.4-0.2,1.8-0.5s0.6-0.8,0.6-1.4c0-0.6-0.2-1-0.6-1.3C232.9,67.2,232.2,67,231.3,67z M231.4,71.5h-2.2v4.1h2.5
			c0.8,0,1.5-0.2,1.9-0.5s0.7-0.9,0.7-1.5C234.2,72.2,233.3,71.5,231.4,71.5z"/>
		<path class="st1" d="M236.4,66.2h0.9v10.2h-0.9V66.2z"/>
		<path class="st1" d="M238,75.2l0.7-0.4c0.4,0.6,1.1,0.9,1.9,0.9c0.9,0,1.5-0.3,1.9-0.8s0.6-1.5,0.6-2.7v-6h0.9v6
			c0,2.9-1.1,4.3-3.4,4.3C239.4,76.5,238.5,76.1,238,75.2z"/>
		<path class="st1" d="M246,73.9l-0.8,2.5h-0.9l3.5-10.2h0.8l3.5,10.2h-0.9l-0.8-2.5H246z M250,73.1l-1.9-5.5l-1.9,5.5H250z"/>
		<path class="st1" d="M255.5,76.4V66.2h3c2.3,0,3.5,0.9,3.5,2.6c0,0.6-0.2,1-0.5,1.5c-0.3,0.4-0.8,0.7-1.3,0.8
			c0.7,0.1,1.2,0.4,1.5,0.9s0.5,1,0.5,1.6c0,0.8-0.3,1.5-0.8,2c-0.6,0.6-1.4,0.8-2.6,0.8H255.5z M258.5,67h-2.2v3.7h2.4
			c0.8,0,1.4-0.2,1.8-0.5s0.6-0.8,0.6-1.4c0-0.6-0.2-1-0.6-1.3C260.1,67.2,259.4,67,258.5,67z M258.6,71.5h-2.2v4.1h2.5
			c0.8,0,1.5-0.2,1.9-0.5s0.7-0.9,0.7-1.5C261.4,72.2,260.5,71.5,258.6,71.5z"/>
		<path class="st1" d="M263.4,76.4V66.2h6V67h-5.1v3.7h4.7v0.8h-4.7v4.1h5.1v0.8H263.4z"/>
		<path class="st1" d="M277.2,70.7v1.2c0,1.5-0.3,2.7-0.9,3.4c-0.6,0.8-1.5,1.1-2.7,1.1s-2.1-0.4-2.7-1.1c-0.6-0.8-0.9-1.9-0.9-3.4
			v-1.2c0-1.5,0.3-2.7,0.9-3.4c0.6-0.8,1.5-1.2,2.7-1.2s2.1,0.4,2.7,1.2C276.9,68,277.2,69.2,277.2,70.7z M270.9,70.7v1.2
			c0,2.5,0.9,3.8,2.8,3.8c1.8,0,2.8-1.3,2.8-3.8v-1.2c0-2.5-0.9-3.8-2.8-3.8C271.8,66.9,270.9,68.2,270.9,70.7z"/>
		<path class="st1" d="M281.6,72.2v-0.8h3.6v0.4c0,1.6-0.3,2.7-0.9,3.5c-0.6,0.8-1.5,1.2-2.7,1.2c-2.4,0-3.6-1.5-3.6-4.6v-1.2
			c0-3.1,1.2-4.6,3.6-4.6c1,0,1.8,0.3,2.4,0.8c0.6,0.5,1,1.3,1.2,2.4h-0.8c-0.3-1.6-1.2-2.4-2.7-2.4c-0.9,0-1.6,0.3-2.1,0.9
			s-0.7,1.6-0.7,2.9v1.2c0,1.3,0.2,2.3,0.7,2.9s1.1,0.9,2.1,0.9c1.8,0,2.7-1.2,2.8-3.5H281.6z"/>
		<path class="st1" d="M291.2,71.9l2.4,4.5h-1l-2.3-4.4c-0.2,0-0.4,0-0.7,0h-2.3v4.3h-0.9V66.2h3.2c1.2,0,2.1,0.3,2.7,0.8
			c0.6,0.5,0.9,1.2,0.9,2.2C293.3,70.6,292.6,71.5,291.2,71.9z M287.4,67v4.3h2.3c1.9,0,2.8-0.7,2.8-2.1c0-1.4-0.9-2.1-2.8-2.1
			H287.4z"/>
		<path class="st1" d="M295.2,73.9l-0.8,2.5h-0.9l3.5-10.2h0.8l3.5,10.2h-0.9l-0.8-2.5H295.2z M299.2,73.1l-1.9-5.5l-1.9,5.5H299.2z
			"/>
		<path class="st1" d="M304.9,76.4h-3.1V66.2h3.1c1.2,0,2.1,0.4,2.8,1.1c0.6,0.7,0.9,1.9,0.9,3.4v1.2c0,1.6-0.3,2.7-0.9,3.4
			C307.1,76,306.1,76.4,304.9,76.4z M302.7,75.6h2.2c1,0,1.7-0.3,2.1-0.9c0.5-0.6,0.7-1.5,0.7-2.8v-1.2c0-1.3-0.2-2.3-0.7-2.8
			c-0.5-0.6-1.2-0.9-2.1-0.9h-2.2V75.6z"/>
	</g>
	<g id="Zagreb" class="st0">
		<path class="st1" d="M109.1,71.9l2.4,4.5h-1l-2.3-4.4c-0.2,0-0.4,0-0.7,0h-2.3v4.3h-0.9V66.2h3.2c1.2,0,2.1,0.3,2.7,0.8
			c0.6,0.5,0.9,1.2,0.9,2.2C111.2,70.6,110.5,71.5,109.1,71.9z M105.3,67v4.3h2.3c1.9,0,2.8-0.7,2.8-2.1c0-1.4-0.9-2.1-2.8-2.1
			H105.3z"/>
		<path class="st1" d="M118.2,76.4V66.2h6V67H119v3.7h4.7v0.8H119v4.1h5.1v0.8H118.2z"/>
		<path class="st1" d="M136.9,74.8v-8.6h0.9v10.2H137l-5.1-8.5v8.5H131V66.2h0.8L136.9,74.8z"/>
		<path class="st1" d="M144.1,67v-0.8h7.3V67h-3.2v9.4h-0.9V67H144.1z"/>
		<path class="st1" d="M166.8,73.9l-0.8,2.5h-0.9l3.5-10.2h0.8l3.5,10.2H172l-0.8-2.5H166.8z M170.9,73.1l-1.9-5.5l-1.9,5.5H170.9z"
			/>
		<path class="st1" d="M194.4,69.3h-0.8c-0.3-1.6-1.2-2.4-2.7-2.4c-0.9,0-1.6,0.3-2.1,0.9s-0.7,1.6-0.7,2.9v1.2
			c0,1.3,0.2,2.3,0.7,2.9s1.1,0.9,2.1,0.9c1.5,0,2.4-0.8,2.7-2.4h0.8c-0.1,1.1-0.5,1.9-1.2,2.4s-1.4,0.8-2.4,0.8
			c-2.4,0-3.6-1.5-3.6-4.6v-1.2c0-3.1,1.2-4.6,3.6-4.6c1,0,1.8,0.3,2.4,0.8C193.9,67.5,194.3,68.3,194.4,69.3z"/>
		<path class="st1" d="M201.6,73.9l-0.8,2.5h-0.9l3.5-10.2h0.8l3.5,10.2h-0.9l-0.8-2.5H201.6z M205.6,73.1l-1.9-5.5l-1.9,5.5H205.6z
			"/>
		<path class="st1" d="M218.7,71.9l2.4,4.5h-1l-2.3-4.4c-0.2,0-0.4,0-0.7,0h-2.3v4.3H214V66.2h3.2c1.2,0,2.1,0.3,2.7,0.8
			c0.6,0.5,0.9,1.2,0.9,2.2C220.8,70.6,220.1,71.5,218.7,71.9z M214.8,67v4.3h2.3c1.9,0,2.8-0.7,2.8-2.1c0-1.4-0.9-2.1-2.8-2.1
			H214.8z"/>
		<path class="st1" d="M235.4,67v-0.8h6.5v0.6l-5.4,8.8h5.5v0.8h-6.6v-0.6l5.4-8.8H235.4z"/>
		<path class="st1" d="M249.2,73.9l-0.8,2.5h-0.9l3.5-10.2h0.8l3.5,10.2h-0.9l-0.8-2.5H249.2z M253.3,73.1l-1.9-5.5l-1.9,5.5H253.3z
			"/>
		<path class="st1" d="M264.7,72.2v-0.8h3.6v0.4c0,1.6-0.3,2.7-0.9,3.5c-0.6,0.8-1.5,1.2-2.7,1.2c-2.4,0-3.6-1.5-3.6-4.6v-1.2
			c0-3.1,1.2-4.6,3.6-4.6c1,0,1.8,0.3,2.4,0.8c0.6,0.5,1,1.3,1.2,2.4h-0.8c-0.3-1.6-1.2-2.4-2.7-2.4c-0.9,0-1.6,0.3-2.1,0.9
			s-0.7,1.6-0.7,2.9v1.2c0,1.3,0.2,2.3,0.7,2.9s1.1,0.9,2.1,0.9c1.8,0,2.7-1.2,2.8-3.5H264.7z"/>
		<path class="st1" d="M280,71.9l2.4,4.5h-1l-2.3-4.4c-0.2,0-0.4,0-0.7,0h-2.3v4.3h-0.9V66.2h3.2c1.2,0,2.1,0.3,2.7,0.8
			c0.6,0.5,0.9,1.2,0.9,2.2C282.1,70.6,281.4,71.5,280,71.9z M276.2,67v4.3h2.3c1.9,0,2.8-0.7,2.8-2.1c0-1.4-0.9-2.1-2.8-2.1H276.2z
			"/>
		<path class="st1" d="M289.1,76.4V66.2h6V67h-5.1v3.7h4.7v0.8h-4.7v4.1h5.1v0.8H289.1z"/>
		<path class="st1" d="M301.9,76.4V66.2h3c2.3,0,3.5,0.9,3.5,2.6c0,0.6-0.2,1-0.5,1.5c-0.3,0.4-0.8,0.7-1.3,0.8
			c0.7,0.1,1.2,0.4,1.5,0.9s0.5,1,0.5,1.6c0,0.8-0.3,1.5-0.8,2c-0.6,0.6-1.4,0.8-2.6,0.8H301.9z M304.9,67h-2.2v3.7h2.4
			c0.8,0,1.4-0.2,1.8-0.5s0.6-0.8,0.6-1.4c0-0.6-0.2-1-0.6-1.3C306.5,67.2,305.9,67,304.9,67z M305,71.5h-2.2v4.1h2.5
			c0.8,0,1.5-0.2,1.9-0.5s0.7-0.9,0.7-1.5C307.9,72.2,306.9,71.5,305,71.5z"/>
	</g>
	<g id="Skopje" class="st0">
		<path class="st1" d="M109.1,71.9l2.4,4.5h-1l-2.3-4.4c-0.2,0-0.4,0-0.7,0h-2.3v4.3h-0.9V66.2h3.2c1.2,0,2.1,0.3,2.7,0.8
			c0.6,0.5,0.9,1.2,0.9,2.2C111.2,70.6,110.5,71.5,109.1,71.9z M105.3,67v4.3h2.3c1.9,0,2.8-0.7,2.8-2.1c0-1.4-0.9-2.1-2.8-2.1
			H105.3z"/>
		<path class="st1" d="M118.3,76.4V66.2h6V67h-5.1v3.7h4.7v0.8h-4.7v4.1h5.1v0.8H118.3z"/>
		<path class="st1" d="M137.2,74.8v-8.6h0.9v10.2h-0.8l-5.1-8.5v8.5h-0.9V66.2h0.8L137.2,74.8z"/>
		<path class="st1" d="M144.4,67v-0.8h7.3V67h-3.2v9.4h-0.9V67H144.4z"/>
		<path class="st1" d="M167.4,73.9l-0.8,2.5h-0.9l3.5-10.2h0.8l3.5,10.2h-0.9l-0.8-2.5H167.4z M171.4,73.1l-1.9-5.5l-1.9,5.5H171.4z
			"/>
		<path class="st1" d="M195.3,69.3h-0.8c-0.3-1.6-1.2-2.4-2.7-2.4c-0.9,0-1.6,0.3-2.1,0.9s-0.7,1.6-0.7,2.9v1.2
			c0,1.3,0.2,2.3,0.7,2.9s1.1,0.9,2.1,0.9c1.5,0,2.4-0.8,2.7-2.4h0.8c-0.1,1.1-0.5,1.9-1.2,2.4s-1.4,0.8-2.4,0.8
			c-2.4,0-3.6-1.5-3.6-4.6v-1.2c0-3.1,1.2-4.6,3.6-4.6c1,0,1.8,0.3,2.4,0.8C194.7,67.5,195.1,68.3,195.3,69.3z"/>
		<path class="st1" d="M202.5,73.9l-0.8,2.5h-0.9l3.5-10.2h0.8l3.5,10.2h-0.9l-0.8-2.5H202.5z M206.5,73.1l-1.9-5.5l-1.9,5.5H206.5z
			"/>
		<path class="st1" d="M219.7,71.9l2.4,4.5h-1l-2.3-4.4c-0.2,0-0.4,0-0.7,0h-2.3v4.3H215V66.2h3.2c1.2,0,2.1,0.3,2.7,0.8
			c0.6,0.5,0.9,1.2,0.9,2.2C221.8,70.6,221.1,71.5,219.7,71.9z M215.9,67v4.3h2.3c1.9,0,2.8-0.7,2.8-2.1c0-1.4-0.9-2.1-2.8-2.1
			H215.9z"/>
		<path class="st1" d="M243.7,67.8l-0.7,0.5c-0.6-0.9-1.5-1.4-2.6-1.4c-0.7,0-1.3,0.2-1.7,0.5c-0.4,0.3-0.6,0.8-0.6,1.4
			c0,0.7,0.2,1.1,0.7,1.4c0.5,0.3,1.1,0.5,2,0.7c1.1,0.2,1.9,0.6,2.4,1c0.5,0.4,0.8,1.1,0.8,1.9c0,0.7-0.3,1.4-0.8,1.9
			c-0.6,0.5-1.4,0.8-2.5,0.8c-1.6,0-2.8-0.6-3.6-1.7l0.7-0.5c0.4,0.5,0.8,0.8,1.2,1c0.4,0.2,1,0.3,1.7,0.3c0.8,0,1.5-0.2,1.9-0.5
			c0.4-0.3,0.6-0.8,0.6-1.3c0-0.6-0.2-1.1-0.6-1.4c-0.4-0.3-1.1-0.6-2-0.8c-1.1-0.2-1.9-0.5-2.4-1c-0.5-0.5-0.8-1.1-0.8-1.9
			c0-0.8,0.3-1.4,0.8-1.9c0.5-0.5,1.3-0.7,2.4-0.7C241.9,66.1,243,66.7,243.7,67.8z"/>
		<path class="st1" d="M254.4,70.3l4.2,6.1h-1l-3.8-5.4l-2.1,2.5v3h-0.9V66.2h0.9v5.9l5-5.9h1.1L254.4,70.3z"/>
		<path class="st1" d="M271.5,70.7v1.2c0,1.5-0.3,2.7-0.9,3.4c-0.6,0.8-1.5,1.1-2.7,1.1s-2.1-0.4-2.7-1.1c-0.6-0.8-0.9-1.9-0.9-3.4
			v-1.2c0-1.5,0.3-2.7,0.9-3.4c0.6-0.8,1.5-1.2,2.7-1.2s2.1,0.4,2.7,1.2C271.2,68,271.5,69.2,271.5,70.7z M265.1,70.7v1.2
			c0,2.5,0.9,3.8,2.8,3.8c1.8,0,2.8-1.3,2.8-3.8v-1.2c0-2.5-0.9-3.8-2.8-3.8C266,66.9,265.1,68.2,265.1,70.7z"/>
		<path class="st1" d="M281.7,72.4h-2.2v4h-0.9V66.2h3.1c1.2,0,2.1,0.3,2.7,0.8c0.7,0.5,1,1.3,1,2.3c0,1-0.3,1.7-1,2.3
			C283.8,72.1,282.9,72.4,281.7,72.4z M279.4,67v4.6h2.2c1.9,0,2.9-0.8,2.9-2.3c0-1.5-1-2.3-2.9-2.3H279.4z"/>
		<path class="st1" d="M289.2,75.2l0.7-0.4c0.4,0.6,1.1,0.9,1.9,0.9c0.9,0,1.5-0.3,1.9-0.8s0.6-1.5,0.6-2.7v-6h0.9v6
			c0,2.9-1.1,4.3-3.4,4.3C290.6,76.5,289.7,76.1,289.2,75.2z"/>
		<path class="st1" d="M302.8,76.4V66.2h6V67h-5.1v3.7h4.7v0.8h-4.7v4.1h5.1v0.8H302.8z"/>
	</g>
	<g id="Split" class="st0">
		<path class="st1" d="M109.1,71.9l2.4,4.5h-1l-2.3-4.4c-0.2,0-0.4,0-0.7,0h-2.3v4.3h-0.9V66.2h3.2c1.2,0,2.1,0.3,2.7,0.8
			c0.6,0.5,0.9,1.2,0.9,2.2C111.2,70.6,110.5,71.5,109.1,71.9z M105.3,67v4.3h2.3c1.9,0,2.8-0.7,2.8-2.1c0-1.4-0.9-2.1-2.8-2.1
			H105.3z"/>
		<path class="st1" d="M119.4,76.4V66.2h6V67h-5.1v3.7h4.7v0.8h-4.7v4.1h5.1v0.8H119.4z"/>
		<path class="st1" d="M139.4,74.8v-8.6h0.9v10.2h-0.8l-5.1-8.5v8.5h-0.9V66.2h0.8L139.4,74.8z"/>
		<path class="st1" d="M147.9,67v-0.8h7.3V67h-3.2v9.4h-0.9V67H147.9z"/>
		<path class="st1" d="M173.1,73.9l-0.8,2.5h-0.9l3.5-10.2h0.8l3.5,10.2h-0.9l-0.8-2.5H173.1z M177.1,73.1l-1.9-5.5l-1.9,5.5H177.1z
			"/>
		<path class="st1" d="M203.2,69.3h-0.8c-0.3-1.6-1.2-2.4-2.7-2.4c-0.9,0-1.6,0.3-2.1,0.9s-0.7,1.6-0.7,2.9v1.2
			c0,1.3,0.2,2.3,0.7,2.9s1.1,0.9,2.1,0.9c1.5,0,2.4-0.8,2.7-2.4h0.8c-0.1,1.1-0.5,1.9-1.2,2.4s-1.4,0.8-2.4,0.8
			c-2.4,0-3.6-1.5-3.6-4.6v-1.2c0-3.1,1.2-4.6,3.6-4.6c1,0,1.8,0.3,2.4,0.8C202.7,67.5,203.1,68.3,203.2,69.3z"/>
		<path class="st1" d="M211.6,73.9l-0.8,2.5h-0.9l3.5-10.2h0.8l3.5,10.2h-0.9l-0.8-2.5H211.6z M215.6,73.1l-1.9-5.5l-1.9,5.5H215.6z
			"/>
		<path class="st1" d="M230,71.9l2.4,4.5h-1l-2.3-4.4c-0.2,0-0.4,0-0.7,0h-2.3v4.3h-0.9V66.2h3.2c1.2,0,2.1,0.3,2.7,0.8
			c0.6,0.5,0.9,1.2,0.9,2.2C232.1,70.6,231.4,71.5,230,71.9z M226.1,67v4.3h2.3c1.9,0,2.8-0.7,2.8-2.1c0-1.4-0.9-2.1-2.8-2.1H226.1z
			"/>
		<path class="st1" d="M256.2,67.8l-0.7,0.5c-0.6-0.9-1.5-1.4-2.6-1.4c-0.7,0-1.3,0.2-1.7,0.5c-0.4,0.3-0.6,0.8-0.6,1.4
			c0,0.7,0.2,1.1,0.7,1.4c0.5,0.3,1.1,0.5,2,0.7c1.1,0.2,1.9,0.6,2.4,1c0.5,0.4,0.8,1.1,0.8,1.9c0,0.7-0.3,1.4-0.8,1.9
			c-0.6,0.5-1.4,0.8-2.5,0.8c-1.6,0-2.8-0.6-3.6-1.7l0.7-0.5c0.4,0.5,0.8,0.8,1.2,1c0.4,0.2,1,0.3,1.7,0.3c0.8,0,1.5-0.2,1.9-0.5
			c0.4-0.3,0.6-0.8,0.6-1.3c0-0.6-0.2-1.1-0.6-1.4c-0.4-0.3-1.1-0.6-2-0.8c-1.1-0.2-1.9-0.5-2.4-1c-0.5-0.5-0.8-1.1-0.8-1.9
			c0-0.8,0.3-1.4,0.8-1.9c0.5-0.5,1.3-0.7,2.4-0.7C254.4,66.1,255.5,66.7,256.2,67.8z"/>
		<path class="st1" d="M267.6,72.4h-2.2v4h-0.9V66.2h3.1c1.2,0,2.1,0.3,2.7,0.8c0.7,0.5,1,1.3,1,2.3c0,1-0.3,1.7-1,2.3
			C269.7,72.1,268.8,72.4,267.6,72.4z M265.4,67v4.6h2.2c1.9,0,2.9-0.8,2.9-2.3c0-1.5-1-2.3-2.9-2.3H265.4z"/>
		<path class="st1" d="M279.3,66.2h0.9v9.4h5.1v0.8h-6V66.2z"/>
		<path class="st1" d="M292.9,66.2h0.9v10.2h-0.9V66.2z"/>
		<path class="st1" d="M301.5,67v-0.8h7.3V67h-3.2v9.4h-0.9V67H301.5z"/>
	</g>
	<g id="Niš" class="st0">
		<path class="st1" d="M109.1,71.9l2.4,4.5h-1l-2.3-4.4c-0.2,0-0.4,0-0.7,0h-2.3v4.3h-0.9V66.2h3.2c1.2,0,2.1,0.3,2.7,0.8
			c0.6,0.5,0.9,1.2,0.9,2.2C111.2,70.6,110.5,71.5,109.1,71.9z M105.3,67v4.3h2.3c1.9,0,2.8-0.7,2.8-2.1c0-1.4-0.9-2.1-2.8-2.1
			H105.3z"/>
		<path class="st1" d="M121.5,76.4V66.2h6V67h-5.1v3.7h4.7v0.8h-4.7v4.1h5.1v0.8H121.5z"/>
		<path class="st1" d="M143.6,74.8v-8.6h0.9v10.2h-0.8l-5.1-8.5v8.5h-0.9V66.2h0.8L143.6,74.8z"/>
		<path class="st1" d="M154.1,67v-0.8h7.3V67h-3.2v9.4h-0.9V67H154.1z"/>
		<path class="st1" d="M183.5,73.9l-0.8,2.5h-0.9l3.5-10.2h0.8l3.5,10.2h-0.9l-0.8-2.5H183.5z M187.5,73.1l-1.9-5.5l-1.9,5.5H187.5z
			"/>
		<path class="st1" d="M217.8,69.3H217c-0.3-1.6-1.2-2.4-2.7-2.4c-0.9,0-1.6,0.3-2.1,0.9s-0.7,1.6-0.7,2.9v1.2
			c0,1.3,0.2,2.3,0.7,2.9s1.1,0.9,2.1,0.9c1.5,0,2.4-0.8,2.7-2.4h0.8c-0.1,1.1-0.5,1.9-1.2,2.4s-1.4,0.8-2.4,0.8
			c-2.4,0-3.6-1.5-3.6-4.6v-1.2c0-3.1,1.2-4.6,3.6-4.6c1,0,1.8,0.3,2.4,0.8C217.3,67.5,217.6,68.3,217.8,69.3z"/>
		<path class="st1" d="M228.3,73.9l-0.8,2.5h-0.9l3.5-10.2h0.8l3.5,10.2h-0.9l-0.8-2.5H228.3z M232.3,73.1l-1.9-5.5l-1.9,5.5H232.3z
			"/>
		<path class="st1" d="M248.7,71.9l2.4,4.5h-1l-2.3-4.4c-0.2,0-0.4,0-0.7,0h-2.3v4.3H244V66.2h3.2c1.2,0,2.1,0.3,2.7,0.8
			c0.6,0.5,0.9,1.2,0.9,2.2C250.8,70.6,250.1,71.5,248.7,71.9z M244.9,67v4.3h2.3c1.9,0,2.8-0.7,2.8-2.1c0-1.4-0.9-2.1-2.8-2.1
			H244.9z"/>
		<path class="st1" d="M278.9,74.8v-8.6h0.9v10.2h-0.8l-5.1-8.5v8.5h-0.9V66.2h0.8L278.9,74.8z"/>
		<path class="st1" d="M290.7,66.2h0.9v10.2h-0.9V66.2z"/>
		<path class="st1" d="M308.7,67.8l-0.7,0.5c-0.6-0.9-1.5-1.4-2.6-1.4c-0.7,0-1.3,0.2-1.7,0.5c-0.4,0.3-0.6,0.8-0.6,1.4
			c0,0.7,0.2,1.1,0.7,1.4c0.5,0.3,1.1,0.5,2,0.7c1.1,0.2,1.9,0.6,2.4,1c0.5,0.4,0.8,1.1,0.8,1.9c0,0.7-0.3,1.4-0.8,1.9
			c-0.6,0.5-1.4,0.8-2.5,0.8c-1.6,0-2.8-0.6-3.6-1.7l0.7-0.5c0.4,0.5,0.8,0.8,1.2,1c0.4,0.2,1,0.3,1.7,0.3c0.8,0,1.5-0.2,1.9-0.5
			c0.4-0.3,0.6-0.8,0.6-1.3c0-0.6-0.2-1.1-0.6-1.4c-0.4-0.3-1.1-0.6-2-0.8c-1.1-0.2-1.9-0.5-2.4-1c-0.5-0.5-0.8-1.1-0.8-1.9
			c0-0.8,0.3-1.4,0.8-1.9c0.5-0.5,1.3-0.7,2.4-0.7C306.9,66.1,308,66.7,308.7,67.8z M302.8,63.3h1.1l1.5,1.5l1.5-1.5h1.1l-2.2,2.1
			H305L302.8,63.3z"/>
	</g>
	<g id="Kraljevo" class="st0">
		<path class="st1" d="M109.1,71.9l2.4,4.5h-1l-2.3-4.4c-0.2,0-0.4,0-0.7,0h-2.3v4.3h-0.9V66.2h3.2c1.2,0,2.1,0.3,2.7,0.8
			c0.6,0.5,0.9,1.2,0.9,2.2C111.2,70.6,110.5,71.5,109.1,71.9z M105.3,67v4.3h2.3c1.9,0,2.8-0.7,2.8-2.1c0-1.4-0.9-2.1-2.8-2.1
			H105.3z"/>
		<path class="st1" d="M116.8,76.4V66.2h6V67h-5.1v3.7h4.7v0.8h-4.7v4.1h5.1v0.8H116.8z"/>
		<path class="st1" d="M134.1,74.8v-8.6h0.9v10.2h-0.8l-5.1-8.5v8.5h-0.9V66.2h0.8L134.1,74.8z"/>
		<path class="st1" d="M139.8,67v-0.8h7.3V67h-3.2v9.4h-0.9V67H139.8z"/>
		<path class="st1" d="M159.7,73.9l-0.8,2.5H158l3.5-10.2h0.8l3.5,10.2h-0.9l-0.8-2.5H159.7z M163.8,73.1l-1.9-5.5l-1.9,5.5H163.8z"
			/>
		<path class="st1" d="M184.5,69.3h-0.8c-0.3-1.6-1.2-2.4-2.7-2.4c-0.9,0-1.6,0.3-2.1,0.9s-0.7,1.6-0.7,2.9v1.2
			c0,1.3,0.2,2.3,0.7,2.9s1.1,0.9,2.1,0.9c1.5,0,2.4-0.8,2.7-2.4h0.8c-0.1,1.1-0.5,1.9-1.2,2.4s-1.4,0.8-2.4,0.8
			c-2.4,0-3.6-1.5-3.6-4.6v-1.2c0-3.1,1.2-4.6,3.6-4.6c1,0,1.8,0.3,2.4,0.8C184,67.5,184.4,68.3,184.5,69.3z"/>
		<path class="st1" d="M190.2,73.9l-0.8,2.5h-0.9l3.5-10.2h0.8l3.5,10.2h-0.9l-0.8-2.5H190.2z M194.3,73.1l-1.9-5.5l-1.9,5.5H194.3z
			"/>
		<path class="st1" d="M205.9,71.9l2.4,4.5h-1l-2.3-4.4c-0.2,0-0.4,0-0.7,0H202v4.3h-0.9V66.2h3.2c1.2,0,2.1,0.3,2.7,0.8
			c0.6,0.5,0.9,1.2,0.9,2.2C208,70.6,207.3,71.5,205.9,71.9z M202,67v4.3h2.3c1.9,0,2.8-0.7,2.8-2.1c0-1.4-0.9-2.1-2.8-2.1H202z"/>
		<path class="st1" d="M224.1,70.3l4.2,6.1h-1l-3.8-5.4l-2.1,2.5v3h-0.9V66.2h0.9v5.9l5-5.9h1.1L224.1,70.3z"/>
		<path class="st1" d="M237.9,71.9l2.4,4.5h-1l-2.3-4.4c-0.2,0-0.4,0-0.7,0H234v4.3h-0.9V66.2h3.2c1.2,0,2.1,0.3,2.7,0.8
			c0.6,0.5,0.9,1.2,0.9,2.2C240,70.6,239.3,71.5,237.9,71.9z M234,67v4.3h2.3c1.9,0,2.8-0.7,2.8-2.1c0-1.4-0.9-2.1-2.8-2.1H234z"/>
		<path class="st1" d="M246.1,73.9l-0.8,2.5h-0.9l3.5-10.2h0.8l3.5,10.2h-0.9l-0.8-2.5H246.1z M250.1,73.1l-1.9-5.5l-1.9,5.5H250.1z
			"/>
		<path class="st1" d="M257.1,66.2h0.9v9.4h5.1v0.8h-6V66.2z"/>
		<path class="st1" d="M266.7,75.2l0.7-0.4c0.4,0.6,1.1,0.9,1.9,0.9c0.9,0,1.5-0.3,1.9-0.8s0.6-1.5,0.6-2.7v-6h0.9v6
			c0,2.9-1.1,4.3-3.4,4.3C268.1,76.5,267.2,76.1,266.7,75.2z"/>
		<path class="st1" d="M278.8,76.4V66.2h6V67h-5.1v3.7h4.7v0.8h-4.7v4.1h5.1v0.8H278.8z"/>
		<path class="st1" d="M292.7,76.4L289,66.2h0.9l3.1,8.8l3.2-8.8h0.9l-3.7,10.2H292.7z"/>
		<path class="st1" d="M308.7,70.7v1.2c0,1.5-0.3,2.7-0.9,3.4c-0.6,0.8-1.5,1.1-2.7,1.1s-2.1-0.4-2.7-1.1c-0.6-0.8-0.9-1.9-0.9-3.4
			v-1.2c0-1.5,0.3-2.7,0.9-3.4c0.6-0.8,1.5-1.2,2.7-1.2s2.1,0.4,2.7,1.2C308.4,68,308.7,69.2,308.7,70.7z M302.3,70.7v1.2
			c0,2.5,0.9,3.8,2.8,3.8c1.8,0,2.8-1.3,2.8-3.8v-1.2c0-2.5-0.9-3.8-2.8-3.8C303.2,66.9,302.3,68.2,302.3,70.7z"/>
	</g>
	<g id="Group" class="st0">
		<path class="st1" d="M111.7,69.3h-0.8c-0.3-1.6-1.2-2.4-2.7-2.4c-0.9,0-1.6,0.3-2.1,0.9c-0.5,0.6-0.7,1.6-0.7,2.9v1.2
			c0,1.3,0.2,2.3,0.7,2.9c0.5,0.6,1.1,0.9,2.1,0.9c1.5,0,2.4-0.8,2.7-2.4h0.8c-0.1,1.1-0.5,1.9-1.2,2.4c-0.6,0.5-1.4,0.8-2.4,0.8
			c-2.4,0-3.6-1.5-3.6-4.6v-1.2c0-3.1,1.2-4.6,3.6-4.6c1,0,1.8,0.3,2.4,0.8C111.1,67.5,111.5,68.3,111.7,69.3z"/>
		<path class="st1" d="M119.2,73.9l-0.8,2.5h-0.9l3.5-10.2h0.8l3.5,10.2h-0.9l-0.8-2.5H119.2z M123.3,73.1l-1.9-5.5l-1.9,5.5H123.3z
			"/>
		<path class="st1" d="M136.7,71.9l2.4,4.5h-1l-2.3-4.4c-0.2,0-0.4,0-0.7,0h-2.3v4.3H132V66.2h3.2c1.2,0,2.1,0.3,2.7,0.8
			c0.6,0.5,0.9,1.2,0.9,2.2C138.8,70.6,138.1,71.5,136.7,71.9z M132.9,67v4.3h2.3c1.9,0,2.8-0.7,2.8-2.1c0-1.4-0.9-2.1-2.8-2.1
			H132.9z"/>
		<path class="st1" d="M159.8,71.9l2.4,4.5h-1l-2.3-4.4c-0.2,0-0.4,0-0.7,0h-2.3v4.3h-0.9V66.2h3.2c1.2,0,2.1,0.3,2.7,0.8
			s0.9,1.2,0.9,2.2C161.9,70.6,161.2,71.5,159.8,71.9z M155.9,67v4.3h2.3c1.8,0,2.8-0.7,2.8-2.1c0-1.4-0.9-2.1-2.8-2.1H155.9z"/>
		<path class="st1" d="M169.2,76.4V66.2h6V67h-5.1v3.7h4.7v0.8h-4.7v4.1h5.1v0.8H169.2z"/>
		<path class="st1" d="M188.4,74.8v-8.6h0.9v10.2h-0.8l-5.1-8.5v8.5h-0.9V66.2h0.8L188.4,74.8z"/>
		<path class="st1" d="M195.9,67v-0.8h7.3V67H200v9.4h-0.9V67H195.9z"/>
		<path class="st1" d="M210.1,73.9l-0.8,2.5h-0.9l3.5-10.2h0.8l3.5,10.2h-0.9l-0.8-2.5H210.1z M214.1,73.1l-1.9-5.5l-1.9,5.5H214.1z
			"/>
		<path class="st1" d="M222.8,66.2h0.9v9.4h5.1v0.8h-6V66.2z"/>
		<path class="st1" d="M247.5,72.2v-0.8h3.6v0.4c0,1.6-0.3,2.7-0.9,3.5c-0.6,0.8-1.5,1.2-2.7,1.2c-2.4,0-3.6-1.5-3.6-4.6v-1.2
			c0-3.1,1.2-4.6,3.6-4.6c1,0,1.8,0.3,2.4,0.8c0.6,0.5,1,1.3,1.2,2.4h-0.8c-0.3-1.6-1.2-2.4-2.7-2.4c-0.9,0-1.6,0.3-2.1,0.9
			s-0.7,1.6-0.7,2.9v1.2c0,1.3,0.2,2.3,0.7,2.9s1.1,0.9,2.1,0.9c1.8,0,2.7-1.2,2.8-3.5H247.5z"/>
		<path class="st1" d="M263.2,71.9l2.4,4.5h-1l-2.3-4.4c-0.2,0-0.4,0-0.7,0h-2.3v4.3h-0.9V66.2h3.2c1.2,0,2.1,0.3,2.7,0.8
			c0.6,0.5,0.9,1.2,0.9,2.2C265.3,70.6,264.6,71.5,263.2,71.9z M259.4,67v4.3h2.3c1.9,0,2.8-0.7,2.8-2.1c0-1.4-0.9-2.1-2.8-2.1
			H259.4z"/>
		<path class="st1" d="M279.4,70.7v1.2c0,1.5-0.3,2.7-0.9,3.4c-0.6,0.8-1.5,1.1-2.7,1.1s-2.1-0.4-2.7-1.1c-0.6-0.8-0.9-1.9-0.9-3.4
			v-1.2c0-1.5,0.3-2.7,0.9-3.4c0.6-0.8,1.5-1.2,2.7-1.2s2.1,0.4,2.7,1.2C279.1,68,279.4,69.2,279.4,70.7z M273,70.7v1.2
			c0,2.5,0.9,3.8,2.8,3.8c1.8,0,2.8-1.3,2.8-3.8v-1.2c0-2.5-0.9-3.8-2.8-3.8C273.9,66.9,273,68.2,273,70.7z"/>
		<path class="st1" d="M286.8,72.2v-6h0.9v6c0,2.3,0.9,3.5,2.8,3.5c1.8,0,2.8-1.2,2.8-3.5v-6h0.9v6c0,1.4-0.3,2.5-0.9,3.2
			c-0.6,0.7-1.5,1.1-2.7,1.1c-1.2,0-2.1-0.4-2.7-1.1C287.1,74.7,286.8,73.7,286.8,72.2z"/>
		<path class="st1" d="M305,72.4h-2.2v4h-0.9V66.2h3.1c1.2,0,2.1,0.3,2.7,0.8c0.7,0.5,1,1.3,1,2.3c0,1-0.3,1.7-1,2.3
			C307.1,72.1,306.2,72.4,305,72.4z M302.7,67v4.6h2.2c1.9,0,2.9-0.8,2.9-2.3c0-1.5-1-2.3-2.9-2.3H302.7z"/>
	</g>
	<g id="Montenegro" class="st0">
		<path class="st1" d="M109.1,71.9l2.4,4.5h-1l-2.3-4.4c-0.2,0-0.4,0-0.7,0h-2.3v4.3h-0.9V66.2h3.2c1.2,0,2.1,0.3,2.7,0.8
			c0.6,0.5,0.9,1.2,0.9,2.2C111.2,70.6,110.5,71.5,109.1,71.9z M105.3,67v4.3h2.3c1.9,0,2.8-0.7,2.8-2.1c0-1.4-0.9-2.1-2.8-2.1
			H105.3z"/>
		<path class="st1" d="M115.3,76.4V66.2h6V67h-5.1v3.7h4.7v0.8h-4.7v4.1h5.1v0.8H115.3z"/>
		<path class="st1" d="M131.1,74.8v-8.6h0.9v10.2h-0.8l-5.1-8.5v8.5h-0.9V66.2h0.8L131.1,74.8z"/>
		<path class="st1" d="M135.4,67v-0.8h7.3V67h-3.2v9.4h-0.9V67H135.4z"/>
		<path class="st1" d="M152.4,73.9l-0.8,2.5h-0.9l3.5-10.2h0.8l3.5,10.2h-0.9l-0.8-2.5H152.4z M156.4,73.1l-1.9-5.5l-1.9,5.5H156.4z
			"/>
		<path class="st1" d="M174.2,69.3h-0.8c-0.3-1.6-1.2-2.4-2.7-2.4c-0.9,0-1.6,0.3-2.1,0.9s-0.7,1.6-0.7,2.9v1.2
			c0,1.3,0.2,2.3,0.7,2.9s1.1,0.9,2.1,0.9c1.5,0,2.4-0.8,2.7-2.4h0.8c-0.1,1.1-0.5,1.9-1.2,2.4s-1.4,0.8-2.4,0.8
			c-2.4,0-3.6-1.5-3.6-4.6v-1.2c0-3.1,1.2-4.6,3.6-4.6c1,0,1.8,0.3,2.4,0.8C173.6,67.5,174,68.3,174.2,69.3z"/>
		<path class="st1" d="M178.4,73.9l-0.8,2.5h-0.9l3.5-10.2h0.8l3.5,10.2h-0.9l-0.8-2.5H178.4z M182.4,73.1l-1.9-5.5l-1.9,5.5H182.4z
			"/>
		<path class="st1" d="M192.6,71.9l2.4,4.5h-1l-2.3-4.4c-0.2,0-0.4,0-0.7,0h-2.3v4.3h-0.9V66.2h3.2c1.2,0,2.1,0.3,2.7,0.8
			c0.6,0.5,0.9,1.2,0.9,2.2C194.7,70.6,194,71.5,192.6,71.9z M188.8,67v4.3h2.3c1.9,0,2.8-0.7,2.8-2.1c0-1.4-0.9-2.1-2.8-2.1H188.8z
			"/>
		<path class="st1" d="M204.4,66.2h0.8l3.4,6.8l3.4-6.8h0.8v10.2H212v-8.3l-3,6h-0.8l-3-6v8.3h-0.9V66.2z"/>
		<path class="st1" d="M224.1,70.7v1.2c0,1.5-0.3,2.7-0.9,3.4c-0.6,0.8-1.5,1.1-2.7,1.1s-2.1-0.4-2.7-1.1c-0.6-0.8-0.9-1.9-0.9-3.4
			v-1.2c0-1.5,0.3-2.7,0.9-3.4c0.6-0.8,1.5-1.2,2.7-1.2s2.1,0.4,2.7,1.2C223.8,68,224.1,69.2,224.1,70.7z M217.8,70.7v1.2
			c0,2.5,0.9,3.8,2.8,3.8c1.8,0,2.8-1.3,2.8-3.8v-1.2c0-2.5-0.9-3.8-2.8-3.8C218.7,66.9,217.8,68.2,217.8,70.7z"/>
		<path class="st1" d="M234.1,74.8v-8.6h0.9v10.2h-0.8l-5.1-8.5v8.5h-0.9V66.2h0.8L234.1,74.8z"/>
		<path class="st1" d="M238.4,67v-0.8h7.3V67h-3.2v9.4h-0.9V67H238.4z"/>
		<path class="st1" d="M249.1,76.4V66.2h6V67H250v3.7h4.7v0.8H250v4.1h5.1v0.8H249.1z"/>
		<path class="st1" d="M265,74.8v-8.6h0.9v10.2H265l-5.1-8.5v8.5h-0.9V66.2h0.8L265,74.8z"/>
		<path class="st1" d="M270.4,76.4V66.2h6V67h-5.1v3.7h4.7v0.8h-4.7v4.1h5.1v0.8H270.4z"/>
		<path class="st1" d="M283.5,72.2v-0.8h3.6v0.4c0,1.6-0.3,2.7-0.9,3.5c-0.6,0.8-1.5,1.2-2.7,1.2c-2.4,0-3.6-1.5-3.6-4.6v-1.2
			c0-3.1,1.2-4.6,3.6-4.6c1,0,1.8,0.3,2.4,0.8c0.6,0.5,1,1.3,1.2,2.4h-0.8c-0.3-1.6-1.2-2.4-2.7-2.4c-0.9,0-1.6,0.3-2.1,0.9
			s-0.7,1.6-0.7,2.9v1.2c0,1.3,0.2,2.3,0.7,2.9s1.1,0.9,2.1,0.9c1.8,0,2.7-1.2,2.8-3.5H283.5z"/>
		<path class="st1" d="M296,71.9l2.4,4.5h-1l-2.3-4.4c-0.2,0-0.4,0-0.7,0h-2.3v4.3h-0.9V66.2h3.2c1.2,0,2.1,0.3,2.7,0.8
			c0.6,0.5,0.9,1.2,0.9,2.2C298.1,70.6,297.4,71.5,296,71.9z M292.1,67v4.3h2.3c1.9,0,2.8-0.7,2.8-2.1c0-1.4-0.9-2.1-2.8-2.1H292.1z
			"/>
		<path class="st1" d="M308.8,70.7v1.2c0,1.5-0.3,2.7-0.9,3.4c-0.6,0.8-1.5,1.1-2.7,1.1s-2.1-0.4-2.7-1.1c-0.6-0.8-0.9-1.9-0.9-3.4
			v-1.2c0-1.5,0.3-2.7,0.9-3.4c0.6-0.8,1.5-1.2,2.7-1.2s2.1,0.4,2.7,1.2C308.5,68,308.8,69.2,308.8,70.7z M302.5,70.7v1.2
			c0,2.5,0.9,3.8,2.8,3.8c1.8,0,2.8-1.3,2.8-3.8v-1.2c0-2.5-0.9-3.8-2.8-3.8C303.4,66.9,302.5,68.2,302.5,70.7z"/>
	</g>
	<g id="Sarajevo" class="st0">
		<path class="st1" d="M109.1,71.9l2.4,4.5h-1l-2.3-4.4c-0.2,0-0.4,0-0.7,0h-2.3v4.3h-0.9V66.2h3.2c1.2,0,2.1,0.3,2.7,0.8
			c0.6,0.5,0.9,1.2,0.9,2.2C111.2,70.6,110.5,71.5,109.1,71.9z M105.3,67v4.3h2.3c1.9,0,2.8-0.7,2.8-2.1c0-1.4-0.9-2.1-2.8-2.1
			H105.3z"/>
		<path class="st1" d="M116.8,76.4V66.2h6V67h-5.1v3.7h4.7v0.8h-4.7v4.1h5.1v0.8H116.8z"/>
		<path class="st1" d="M134.1,74.8v-8.6h0.9v10.2h-0.8l-5.1-8.5v8.5h-0.9V66.2h0.8L134.1,74.8z"/>
		<path class="st1" d="M139.8,67v-0.8h7.3V67h-3.2v9.4h-0.9V67H139.8z"/>
		<path class="st1" d="M159.7,73.9l-0.8,2.5H158l3.5-10.2h0.8l3.5,10.2h-0.9l-0.8-2.5H159.7z M163.8,73.1l-1.9-5.5l-1.9,5.5H163.8z"
			/>
		<path class="st1" d="M184.5,69.3h-0.8c-0.3-1.6-1.2-2.4-2.7-2.4c-0.9,0-1.6,0.3-2.1,0.9s-0.7,1.6-0.7,2.9v1.2
			c0,1.3,0.2,2.3,0.7,2.9s1.1,0.9,2.1,0.9c1.5,0,2.4-0.8,2.7-2.4h0.8c-0.1,1.1-0.5,1.9-1.2,2.4s-1.4,0.8-2.4,0.8
			c-2.4,0-3.6-1.5-3.6-4.6v-1.2c0-3.1,1.2-4.6,3.6-4.6c1,0,1.8,0.3,2.4,0.8C184,67.5,184.4,68.3,184.5,69.3z"/>
		<path class="st1" d="M190.2,73.9l-0.8,2.5h-0.9l3.5-10.2h0.8l3.5,10.2h-0.9l-0.8-2.5H190.2z M194.3,73.1l-1.9-5.5l-1.9,5.5H194.3z
			"/>
		<path class="st1" d="M205.9,71.9l2.4,4.5h-1l-2.3-4.4c-0.2,0-0.4,0-0.7,0H202v4.3h-0.9V66.2h3.2c1.2,0,2.1,0.3,2.7,0.8
			c0.6,0.5,0.9,1.2,0.9,2.2C208,70.6,207.3,71.5,205.9,71.9z M202,67v4.3h2.3c1.9,0,2.8-0.7,2.8-2.1c0-1.4-0.9-2.1-2.8-2.1H202z"/>
		<path class="st1" d="M226.8,67.8l-0.7,0.5c-0.6-0.9-1.5-1.4-2.6-1.4c-0.7,0-1.3,0.2-1.7,0.5c-0.4,0.3-0.6,0.8-0.6,1.4
			c0,0.7,0.2,1.1,0.7,1.4c0.5,0.3,1.1,0.5,2,0.7c1.1,0.2,1.9,0.6,2.4,1c0.5,0.4,0.8,1.1,0.8,1.9c0,0.7-0.3,1.4-0.8,1.9
			c-0.6,0.5-1.4,0.8-2.5,0.8c-1.6,0-2.8-0.6-3.6-1.7l0.7-0.5c0.4,0.5,0.8,0.8,1.2,1c0.4,0.2,1,0.3,1.7,0.3c0.8,0,1.5-0.2,1.9-0.5
			c0.4-0.3,0.6-0.8,0.6-1.3c0-0.6-0.2-1.1-0.6-1.4c-0.4-0.3-1.1-0.6-2-0.8c-1.1-0.2-1.9-0.5-2.4-1c-0.5-0.5-0.8-1.1-0.8-1.9
			c0-0.8,0.3-1.4,0.8-1.9c0.5-0.5,1.3-0.7,2.4-0.7C225,66.1,226.1,66.7,226.8,67.8z"/>
		<path class="st1" d="M233,73.9l-0.8,2.5h-0.9l3.5-10.2h0.8l3.5,10.2h-0.9l-0.8-2.5H233z M237.1,73.1l-1.9-5.5l-1.9,5.5H237.1z"/>
		<path class="st1" d="M248.7,71.9l2.4,4.5h-1l-2.3-4.4c-0.2,0-0.4,0-0.7,0h-2.3v4.3H244V66.2h3.2c1.2,0,2.1,0.3,2.7,0.8
			c0.6,0.5,0.9,1.2,0.9,2.2C250.8,70.6,250.1,71.5,248.7,71.9z M244.9,67v4.3h2.3c1.9,0,2.8-0.7,2.8-2.1c0-1.4-0.9-2.1-2.8-2.1
			H244.9z"/>
		<path class="st1" d="M256.9,73.9l-0.8,2.5h-0.9l3.5-10.2h0.8l3.5,10.2H262l-0.8-2.5H256.9z M260.9,73.1l-1.9-5.5l-1.9,5.5H260.9z"
			/>
		<path class="st1" d="M266.7,75.2l0.7-0.4c0.4,0.6,1.1,0.9,1.9,0.9c0.9,0,1.5-0.3,1.9-0.8s0.6-1.5,0.6-2.7v-6h0.9v6
			c0,2.9-1.1,4.3-3.4,4.3C268.1,76.5,267.2,76.1,266.7,75.2z"/>
		<path class="st1" d="M278.7,76.4V66.2h6V67h-5.1v3.7h4.7v0.8h-4.7v4.1h5.1v0.8H278.7z"/>
		<path class="st1" d="M292.7,76.4L289,66.2h0.9l3.1,8.8l3.2-8.8h0.9l-3.7,10.2H292.7z"/>
		<path class="st1" d="M308.7,70.7v1.2c0,1.5-0.3,2.7-0.9,3.4c-0.6,0.8-1.5,1.1-2.7,1.1s-2.1-0.4-2.7-1.1c-0.6-0.8-0.9-1.9-0.9-3.4
			v-1.2c0-1.5,0.3-2.7,0.9-3.4c0.6-0.8,1.5-1.2,2.7-1.2s2.1,0.4,2.7,1.2C308.4,68,308.7,69.2,308.7,70.7z M302.3,70.7v1.2
			c0,2.5,0.9,3.8,2.8,3.8c1.8,0,2.8-1.3,2.8-3.8v-1.2c0-2.5-0.9-3.8-2.8-3.8C303.2,66.9,302.3,68.2,302.3,70.7z"/>
	</g>
	<g id="Banja_Luka" class="st0">
		<path class="st1" d="M109.1,71.9l2.4,4.5h-1l-2.3-4.4c-0.2,0-0.4,0-0.7,0h-2.3v4.3h-0.9V66.2h3.2c1.2,0,2.1,0.3,2.7,0.8
			c0.6,0.5,0.9,1.2,0.9,2.2C111.2,70.6,110.5,71.5,109.1,71.9z M105.3,67v4.3h2.3c1.9,0,2.8-0.7,2.8-2.1c0-1.4-0.9-2.1-2.8-2.1
			H105.3z"/>
		<path class="st1" d="M115.7,76.4V66.2h6V67h-5.1v3.7h4.7v0.8h-4.7v4.1h5.1v0.8H115.7z"/>
		<path class="st1" d="M132,74.8v-8.6h0.9v10.2H132l-5.1-8.5v8.5h-0.9V66.2h0.8L132,74.8z"/>
		<path class="st1" d="M136.7,67v-0.8h7.3V67h-3.2v9.4h-0.9V67H136.7z"/>
		<path class="st1" d="M154.5,73.9l-0.8,2.5h-0.9l3.5-10.2h0.8l3.5,10.2h-0.9l-0.8-2.5H154.5z M158.5,73.1l-1.9-5.5l-1.9,5.5H158.5z
			"/>
		<path class="st1" d="M177.2,69.3h-0.8c-0.3-1.6-1.2-2.4-2.7-2.4c-0.9,0-1.6,0.3-2.1,0.9s-0.7,1.6-0.7,2.9v1.2
			c0,1.3,0.2,2.3,0.7,2.9s1.1,0.9,2.1,0.9c1.5,0,2.4-0.8,2.7-2.4h0.8c-0.1,1.1-0.5,1.9-1.2,2.4s-1.4,0.8-2.4,0.8
			c-2.4,0-3.6-1.5-3.6-4.6v-1.2c0-3.1,1.2-4.6,3.6-4.6c1,0,1.8,0.3,2.4,0.8C176.6,67.5,177,68.3,177.2,69.3z"/>
		<path class="st1" d="M181.8,73.9l-0.8,2.5h-0.9l3.5-10.2h0.8l3.5,10.2H187l-0.8-2.5H181.8z M185.9,73.1l-1.9-5.5l-1.9,5.5H185.9z"
			/>
		<path class="st1" d="M196.5,71.9l2.4,4.5h-1l-2.3-4.4c-0.2,0-0.4,0-0.7,0h-2.3v4.3h-0.9V66.2h3.2c1.2,0,2.1,0.3,2.7,0.8
			c0.6,0.5,0.9,1.2,0.9,2.2C198.6,70.6,197.9,71.5,196.5,71.9z M192.6,67v4.3h2.3c1.9,0,2.8-0.7,2.8-2.1c0-1.4-0.9-2.1-2.8-2.1
			H192.6z"/>
		<path class="st1" d="M209.1,76.4V66.2h3c2.3,0,3.5,0.9,3.5,2.6c0,0.6-0.2,1-0.5,1.5c-0.3,0.4-0.8,0.7-1.3,0.8
			c0.7,0.1,1.2,0.4,1.5,0.9s0.5,1,0.5,1.6c0,0.8-0.3,1.5-0.8,2c-0.6,0.6-1.4,0.8-2.6,0.8H209.1z M212.1,67H210v3.7h2.4
			c0.8,0,1.4-0.2,1.8-0.5s0.6-0.8,0.6-1.4c0-0.6-0.2-1-0.6-1.3C213.7,67.2,213,67,212.1,67z M212.2,71.5H210v4.1h2.5
			c0.8,0,1.5-0.2,1.9-0.5s0.7-0.9,0.7-1.5C215,72.2,214.1,71.5,212.2,71.5z"/>
		<path class="st1" d="M220.9,73.9l-0.8,2.5h-0.9l3.5-10.2h0.8l3.5,10.2H226l-0.8-2.5H220.9z M224.9,73.1l-1.9-5.5l-1.9,5.5H224.9z"
			/>
		<path class="st1" d="M236.7,74.8v-8.6h0.9v10.2h-0.8l-5.1-8.5v8.5h-0.9V66.2h0.8L236.7,74.8z"/>
		<path class="st1" d="M241.4,75.2l0.7-0.4c0.4,0.6,1.1,0.9,1.9,0.9c0.9,0,1.5-0.3,1.9-0.8s0.6-1.5,0.6-2.7v-6h0.9v6
			c0,2.9-1.1,4.3-3.4,4.3C242.8,76.5,241.9,76.1,241.4,75.2z"/>
		<path class="st1" d="M252.7,73.9l-0.8,2.5h-0.9l3.5-10.2h0.8l3.5,10.2h-0.9l-0.8-2.5H252.7z M256.7,73.1l-1.9-5.5l-1.9,5.5H256.7z
			"/>
		<path class="st1" d="M268.6,66.2h0.9v9.4h5.1v0.8h-6V66.2z"/>
		<path class="st1" d="M278.4,72.2v-6h0.9v6c0,2.3,0.9,3.5,2.8,3.5c1.8,0,2.8-1.2,2.8-3.5v-6h0.9v6c0,1.4-0.3,2.5-0.9,3.2
			c-0.6,0.7-1.5,1.1-2.7,1.1c-1.2,0-2.1-0.4-2.7-1.1C278.7,74.7,278.4,73.7,278.4,72.2z"/>
		<path class="st1" d="M294.2,70.3l4.2,6.1h-1l-3.8-5.4l-2.1,2.5v3h-0.9V66.2h0.9v5.9l5-5.9h1.1L294.2,70.3z"/>
		<path class="st1" d="M302.8,73.9l-0.8,2.5H301l3.5-10.2h0.8l3.5,10.2h-0.9l-0.8-2.5H302.8z M306.8,73.1l-1.9-5.5l-1.9,5.5H306.8z"
			/>
	</g>
	<g id="Novi_Sad">
		<path class="st2" d="M109.1,71.9l2.4,4.5h-1l-2.3-4.4c-0.2,0-0.4,0-0.7,0h-2.3v4.3h-0.9V66.2h3.2c1.2,0,2.1,0.3,2.7,0.8
			c0.6,0.5,0.9,1.2,0.9,2.2C111.2,70.6,110.5,71.5,109.1,71.9z M105.3,67v4.3h2.3c1.9,0,2.8-0.7,2.8-2.1c0-1.4-0.9-2.1-2.8-2.1
			H105.3z"/>
		<path class="st2" d="M117.1,76.4V66.2h6V67H118v3.7h4.7v0.8H118v4.1h5.1v0.8H117.1z"/>
		<path class="st2" d="M134.8,74.8v-8.6h0.9v10.2h-0.8l-5.1-8.5v8.5h-0.9V66.2h0.8L134.8,74.8z"/>
		<path class="st2" d="M140.9,67v-0.8h7.3V67H145v9.4h-0.9V67H140.9z"/>
		<path class="st2" d="M161.6,73.9l-0.8,2.5h-0.9l3.5-10.2h0.8l3.5,10.2h-0.9l-0.8-2.5H161.6z M165.6,73.1l-1.9-5.5l-1.9,5.5H165.6z
			"/>
		<path class="st2" d="M187.1,69.3h-0.8c-0.3-1.6-1.2-2.4-2.7-2.4c-0.9,0-1.6,0.3-2.1,0.9s-0.7,1.6-0.7,2.9v1.2
			c0,1.3,0.2,2.3,0.7,2.9s1.1,0.9,2.1,0.9c1.5,0,2.4-0.8,2.7-2.4h0.8c-0.1,1.1-0.5,1.9-1.2,2.4s-1.4,0.8-2.4,0.8
			c-2.4,0-3.6-1.5-3.6-4.6v-1.2c0-3.1,1.2-4.6,3.6-4.6c1,0,1.8,0.3,2.4,0.8C186.5,67.5,186.9,68.3,187.1,69.3z"/>
		<path class="st2" d="M193.2,73.9l-0.8,2.5h-0.9l3.5-10.2h0.8l3.5,10.2h-0.9l-0.8-2.5H193.2z M197.2,73.1l-1.9-5.5l-1.9,5.5H197.2z
			"/>
		<path class="st2" d="M209.2,71.9l2.4,4.5h-1l-2.3-4.4c-0.2,0-0.4,0-0.7,0h-2.3v4.3h-0.9V66.2h3.2c1.2,0,2.1,0.3,2.7,0.8
			c0.6,0.5,0.9,1.2,0.9,2.2C211.3,70.6,210.6,71.5,209.2,71.9z M205.4,67v4.3h2.3c1.9,0,2.8-0.7,2.8-2.1c0-1.4-0.9-2.1-2.8-2.1
			H205.4z"/>
		<path class="st2" d="M230.6,74.8v-8.6h0.9v10.2h-0.8l-5.1-8.5v8.5h-0.9V66.2h0.8L230.6,74.8z"/>
		<path class="st2" d="M244.6,70.7v1.2c0,1.5-0.3,2.7-0.9,3.4c-0.6,0.8-1.5,1.1-2.7,1.1s-2.1-0.4-2.7-1.1c-0.6-0.8-0.9-1.9-0.9-3.4
			v-1.2c0-1.5,0.3-2.7,0.9-3.4c0.6-0.8,1.5-1.2,2.7-1.2s2.1,0.4,2.7,1.2C244.3,68,244.6,69.2,244.6,70.7z M238.2,70.7v1.2
			c0,2.5,0.9,3.8,2.8,3.8c1.8,0,2.8-1.3,2.8-3.8v-1.2c0-2.5-0.9-3.8-2.8-3.8C239.2,66.9,238.2,68.2,238.2,70.7z"/>
		<path class="st2" d="M252.9,76.4l-3.7-10.2h0.9l3.1,8.8l3.2-8.8h0.9l-3.7,10.2H252.9z"/>
		<path class="st2" d="M262.8,66.2h0.9v10.2h-0.9V66.2z"/>
		<path class="st2" d="M283.9,67.8l-0.7,0.5c-0.6-0.9-1.5-1.4-2.6-1.4c-0.7,0-1.3,0.2-1.7,0.5c-0.4,0.3-0.6,0.8-0.6,1.4
			c0,0.7,0.2,1.1,0.7,1.4c0.5,0.3,1.1,0.5,2,0.7c1.1,0.2,1.9,0.6,2.4,1c0.5,0.4,0.8,1.1,0.8,1.9c0,0.7-0.3,1.4-0.8,1.9
			c-0.6,0.5-1.4,0.8-2.5,0.8c-1.6,0-2.8-0.6-3.6-1.7l0.7-0.5c0.4,0.5,0.8,0.8,1.2,1c0.4,0.2,1,0.3,1.7,0.3c0.8,0,1.5-0.2,1.9-0.5
			c0.4-0.3,0.6-0.8,0.6-1.3c0-0.6-0.2-1.1-0.6-1.4c-0.4-0.3-1.1-0.6-2-0.8c-1.1-0.2-1.9-0.5-2.4-1c-0.5-0.5-0.8-1.1-0.8-1.9
			c0-0.8,0.3-1.4,0.8-1.9c0.5-0.5,1.3-0.7,2.4-0.7C282.1,66.1,283.2,66.7,283.9,67.8z"/>
		<path class="st2" d="M290.5,73.9l-0.8,2.5h-0.9l3.5-10.2h0.8l3.5,10.2h-0.9l-0.8-2.5H290.5z M294.5,73.1l-1.9-5.5l-1.9,5.5H294.5z
			"/>
		<path class="st2" d="M305,76.4h-3.1V66.2h3.1c1.2,0,2.1,0.4,2.8,1.1c0.6,0.7,0.9,1.9,0.9,3.4v1.2c0,1.6-0.3,2.7-0.9,3.4
			C307.1,76,306.2,76.4,305,76.4z M302.7,75.6h2.2c1,0,1.7-0.3,2.1-0.9c0.5-0.6,0.7-1.5,0.7-2.8v-1.2c0-1.3-0.2-2.3-0.7-2.8
			c-0.5-0.6-1.2-0.9-2.1-0.9h-2.2V75.6z"/>
	</g>
	<g id="Aerodrom" class="st0">
		<path class="st1" d="M109.1,71.9l2.4,4.5h-1l-2.3-4.4c-0.2,0-0.4,0-0.7,0h-2.3v4.3h-0.9V66.2h3.2c1.2,0,2.1,0.3,2.7,0.8
			c0.6,0.5,0.9,1.2,0.9,2.2C111.2,70.6,110.5,71.5,109.1,71.9z M105.3,67v4.3h2.3c1.9,0,2.8-0.7,2.8-2.1c0-1.4-0.9-2.1-2.8-2.1
			H105.3z"/>
		<path class="st1" d="M113,76.4V66.2h6V67h-5.1v3.7h4.7v0.8h-4.7v4.1h5.1v0.8H113z"/>
		<path class="st1" d="M126.6,74.8v-8.6h0.9v10.2h-0.8l-5.1-8.5v8.5h-0.9V66.2h0.8L126.6,74.8z"/>
		<path class="st1" d="M128.6,67v-0.8h7.3V67h-3.2v9.4h-0.9V67H128.6z"/>
		<path class="st1" d="M141.1,73.9l-0.8,2.5h-0.9l3.5-10.2h0.8l3.5,10.2h-0.9l-0.8-2.5H141.1z M145.1,73.1l-1.9-5.5l-1.9,5.5H145.1z
			"/>
		<path class="st1" d="M158.3,69.3h-0.8c-0.3-1.6-1.2-2.4-2.7-2.4c-0.9,0-1.6,0.3-2.1,0.9c-0.5,0.6-0.7,1.6-0.7,2.9v1.2
			c0,1.3,0.2,2.3,0.7,2.9c0.5,0.6,1.1,0.9,2.1,0.9c1.5,0,2.4-0.8,2.7-2.4h0.8c-0.1,1.1-0.5,1.9-1.2,2.4c-0.6,0.5-1.4,0.8-2.4,0.8
			c-2.4,0-3.6-1.5-3.6-4.6v-1.2c0-3.1,1.2-4.6,3.6-4.6c1,0,1.8,0.3,2.4,0.8C157.8,67.5,158.2,68.3,158.3,69.3z"/>
		<path class="st1" d="M160.3,73.9l-0.8,2.5h-0.9l3.5-10.2h0.8l3.5,10.2h-0.9l-0.8-2.5H160.3z M164.4,73.1l-1.9-5.5l-1.9,5.5H164.4z
			"/>
		<path class="st1" d="M172.3,71.9l2.4,4.5h-1l-2.3-4.4c-0.2,0-0.4,0-0.7,0h-2.3v4.3h-0.9V66.2h3.2c1.2,0,2.1,0.3,2.7,0.8
			c0.6,0.5,0.9,1.2,0.9,2.2C174.4,70.6,173.7,71.5,172.3,71.9z M168.4,67v4.3h2.3c1.9,0,2.8-0.7,2.8-2.1c0-1.4-0.9-2.1-2.8-2.1
			H168.4z"/>
		<path class="st1" d="M180.1,73.9l-0.8,2.5h-0.9l3.5-10.2h0.8l3.5,10.2h-0.9l-0.8-2.5H180.1z M184.1,73.1l-1.9-5.5l-1.9,5.5H184.1z
			"/>
		<path class="st1" d="M187.3,76.4V66.2h6V67h-5.1v3.7h4.7v0.8h-4.7v4.1h5.1v0.8H187.3z"/>
		<path class="st1" d="M199.7,71.9l2.4,4.5h-1l-2.3-4.4c-0.2,0-0.4,0-0.7,0h-2.3v4.3H195V66.2h3.2c1.2,0,2.1,0.3,2.7,0.8
			c0.6,0.5,0.9,1.2,0.9,2.2C201.8,70.6,201.1,71.5,199.7,71.9z M195.9,67v4.3h2.3c1.9,0,2.8-0.7,2.8-2.1c0-1.4-0.9-2.1-2.8-2.1
			H195.9z"/>
		<path class="st1" d="M210.3,70.7v1.2c0,1.5-0.3,2.7-0.9,3.4c-0.6,0.8-1.5,1.1-2.7,1.1s-2.1-0.4-2.7-1.1c-0.6-0.8-0.9-1.9-0.9-3.4
			v-1.2c0-1.5,0.3-2.7,0.9-3.4c0.6-0.8,1.5-1.2,2.7-1.2s2.1,0.4,2.7,1.2C210,68,210.3,69.2,210.3,70.7z M204,70.7v1.2
			c0,2.5,0.9,3.8,2.8,3.8c1.8,0,2.8-1.3,2.8-3.8v-1.2c0-2.5-0.9-3.8-2.8-3.8C204.9,66.9,204,68.2,204,70.7z"/>
		<path class="st1" d="M215.3,76.4h-3.1V66.2h3.1c1.2,0,2.1,0.4,2.8,1.1c0.6,0.7,0.9,1.9,0.9,3.4v1.2c0,1.6-0.3,2.7-0.9,3.4
			C217.4,76,216.5,76.4,215.3,76.4z M213,75.6h2.2c1,0,1.7-0.3,2.1-0.9c0.5-0.6,0.7-1.5,0.7-2.8v-1.2c0-1.3-0.2-2.3-0.7-2.8
			c-0.5-0.6-1.2-0.9-2.1-0.9H213V75.6z"/>
		<path class="st1" d="M225.5,71.9l2.4,4.5h-1l-2.3-4.4c-0.2,0-0.4,0-0.7,0h-2.3v4.3h-0.9V66.2h3.2c1.2,0,2.1,0.3,2.7,0.8
			c0.6,0.5,0.9,1.2,0.9,2.2C227.6,70.6,226.9,71.5,225.5,71.9z M221.6,67v4.3h2.3c1.9,0,2.8-0.7,2.8-2.1c0-1.4-0.9-2.1-2.8-2.1
			H221.6z"/>
		<path class="st1" d="M236.1,70.7v1.2c0,1.5-0.3,2.7-0.9,3.4c-0.6,0.8-1.5,1.1-2.7,1.1s-2.1-0.4-2.7-1.1c-0.6-0.8-0.9-1.9-0.9-3.4
			v-1.2c0-1.5,0.3-2.7,0.9-3.4c0.6-0.8,1.5-1.2,2.7-1.2s2.1,0.4,2.7,1.2C235.8,68,236.1,69.2,236.1,70.7z M229.7,70.7v1.2
			c0,2.5,0.9,3.8,2.8,3.8c1.8,0,2.8-1.3,2.8-3.8v-1.2c0-2.5-0.9-3.8-2.8-3.8C230.6,66.9,229.7,68.2,229.7,70.7z"/>
		<path class="st1" d="M237.9,66.2h0.8l3.4,6.8l3.4-6.8h0.8v10.2h-0.9v-8.3l-3,6h-0.8l-3-6v8.3h-0.9V66.2z"/>
		<path class="st1" d="M252.1,76.4V66.2h3c2.3,0,3.5,0.9,3.5,2.6c0,0.6-0.2,1-0.5,1.5c-0.3,0.4-0.8,0.7-1.3,0.8
			c0.7,0.1,1.2,0.4,1.5,0.9s0.5,1,0.5,1.6c0,0.8-0.3,1.5-0.8,2c-0.6,0.6-1.4,0.8-2.6,0.8H252.1z M255.1,67h-2.2v3.7h2.4
			c0.8,0,1.4-0.2,1.8-0.5s0.6-0.8,0.6-1.4c0-0.6-0.2-1-0.6-1.3C256.7,67.2,256,67,255.1,67z M255.1,71.5h-2.2v4.1h2.5
			c0.8,0,1.5-0.2,1.9-0.5s0.7-0.9,0.7-1.5C258,72.2,257.1,71.5,255.1,71.5z"/>
		<path class="st1" d="M260.5,76.4V66.2h6V67h-5.1v3.7h4.7v0.8h-4.7v4.1h5.1v0.8H260.5z"/>
		<path class="st1" d="M275,70.7v1.2c0,1.5-0.3,2.7-0.9,3.4c-0.6,0.8-1.5,1.1-2.7,1.1s-2.1-0.4-2.7-1.1c-0.6-0.8-0.9-1.9-0.9-3.4
			v-1.2c0-1.5,0.3-2.7,0.9-3.4c0.6-0.8,1.5-1.2,2.7-1.2s2.1,0.4,2.7,1.2C274.6,68,275,69.2,275,70.7z M268.6,70.7v1.2
			c0,2.5,0.9,3.8,2.8,3.8c1.8,0,2.8-1.3,2.8-3.8v-1.2c0-2.5-0.9-3.8-2.8-3.8C269.5,66.9,268.6,68.2,268.6,70.7z"/>
		<path class="st1" d="M279.9,72.2v-0.8h3.6v0.4c0,1.6-0.3,2.7-0.9,3.5c-0.6,0.8-1.5,1.2-2.7,1.2c-2.4,0-3.6-1.5-3.6-4.6v-1.2
			c0-3.1,1.2-4.6,3.6-4.6c1,0,1.8,0.3,2.4,0.8c0.6,0.5,1,1.3,1.2,2.4h-0.8c-0.3-1.6-1.2-2.4-2.7-2.4c-0.9,0-1.6,0.3-2.1,0.9
			s-0.7,1.6-0.7,2.9v1.2c0,1.3,0.2,2.3,0.7,2.9s1.1,0.9,2.1,0.9c1.8,0,2.7-1.2,2.8-3.5H279.9z"/>
		<path class="st1" d="M290.1,71.9l2.4,4.5h-1l-2.3-4.4c-0.2,0-0.4,0-0.7,0h-2.3v4.3h-0.9V66.2h3.2c1.2,0,2.1,0.3,2.7,0.8
			c0.6,0.5,0.9,1.2,0.9,2.2C292.2,70.6,291.5,71.5,290.1,71.9z M286.2,67v4.3h2.3c1.9,0,2.8-0.7,2.8-2.1c0-1.4-0.9-2.1-2.8-2.1
			H286.2z"/>
		<path class="st1" d="M294.6,73.9l-0.8,2.5h-0.9l3.5-10.2h0.8l3.5,10.2h-0.9l-0.8-2.5H294.6z M298.6,73.1l-1.9-5.5l-1.9,5.5H298.6z
			"/>
		<path class="st1" d="M304.9,76.4h-3.1V66.2h3.1c1.2,0,2.1,0.4,2.8,1.1c0.6,0.7,0.9,1.9,0.9,3.4v1.2c0,1.6-0.3,2.7-0.9,3.4
			C307,76,306.1,76.4,304.9,76.4z M302.6,75.6h2.2c1,0,1.7-0.3,2.1-0.9c0.5-0.6,0.7-1.5,0.7-2.8v-1.2c0-1.3-0.2-2.3-0.7-2.8
			c-0.5-0.6-1.2-0.9-2.1-0.9h-2.2V75.6z"/>
	</g>
	<g id="Beograd" class="st0">
		<path class="st1" d="M109.1,71.9l2.4,4.5h-1l-2.3-4.4c-0.2,0-0.4,0-0.7,0h-2.3v4.3h-0.9V66.2h3.2c1.2,0,2.1,0.3,2.7,0.8
			c0.6,0.5,0.9,1.2,0.9,2.2C111.2,70.6,110.5,71.5,109.1,71.9z M105.3,67v4.3h2.3c1.9,0,2.8-0.7,2.8-2.1c0-1.4-0.9-2.1-2.8-2.1
			H105.3z"/>
		<path class="st1" d="M115.8,76.4V66.2h6V67h-5.1v3.7h4.7v0.8h-4.7v4.1h5.1v0.8H115.8z"/>
		<path class="st1" d="M132.2,74.8v-8.6h0.9v10.2h-0.8l-5.1-8.5v8.5h-0.9V66.2h0.8L132.2,74.8z"/>
		<path class="st1" d="M137,67v-0.8h7.3V67H141v9.4h-0.9V67H137z"/>
		<path class="st1" d="M154.9,73.9l-0.8,2.5h-0.9l3.5-10.2h0.8l3.5,10.2h-0.9l-0.8-2.5H154.9z M159,73.1l-1.9-5.5l-1.9,5.5H159z"/>
		<path class="st1" d="M177.8,69.3h-0.8c-0.3-1.6-1.2-2.4-2.7-2.4c-0.9,0-1.6,0.3-2.1,0.9s-0.7,1.6-0.7,2.9v1.2
			c0,1.3,0.2,2.3,0.7,2.9s1.1,0.9,2.1,0.9c1.5,0,2.4-0.8,2.7-2.4h0.8c-0.1,1.1-0.5,1.9-1.2,2.4s-1.4,0.8-2.4,0.8
			c-2.4,0-3.6-1.5-3.6-4.6v-1.2c0-3.1,1.2-4.6,3.6-4.6c1,0,1.8,0.3,2.4,0.8C177.2,67.5,177.6,68.3,177.8,69.3z"/>
		<path class="st1" d="M182.6,73.9l-0.8,2.5h-0.9l3.5-10.2h0.8l3.5,10.2h-0.9l-0.8-2.5H182.6z M186.6,73.1l-1.9-5.5l-1.9,5.5H186.6z
			"/>
		<path class="st1" d="M197.3,71.9l2.4,4.5h-1l-2.3-4.4c-0.2,0-0.4,0-0.7,0h-2.3v4.3h-0.9V66.2h3.2c1.2,0,2.1,0.3,2.7,0.8
			c0.6,0.5,0.9,1.2,0.9,2.2C199.4,70.6,198.7,71.5,197.3,71.9z M193.4,67v4.3h2.3c1.9,0,2.8-0.7,2.8-2.1c0-1.4-0.9-2.1-2.8-2.1
			H193.4z"/>
		<path class="st1" d="M210.1,76.4V66.2h3c2.3,0,3.5,0.9,3.5,2.6c0,0.6-0.2,1-0.5,1.5c-0.3,0.4-0.8,0.7-1.3,0.8
			c0.7,0.1,1.2,0.4,1.5,0.9s0.5,1,0.5,1.6c0,0.8-0.3,1.5-0.8,2c-0.6,0.6-1.4,0.8-2.6,0.8H210.1z M213.1,67h-2.2v3.7h2.4
			c0.8,0,1.4-0.2,1.8-0.5s0.6-0.8,0.6-1.4c0-0.6-0.2-1-0.6-1.3C214.7,67.2,214,67,213.1,67z M213.2,71.5h-2.2v4.1h2.5
			c0.8,0,1.5-0.2,1.9-0.5s0.7-0.9,0.7-1.5C216,72.2,215.1,71.5,213.2,71.5z"/>
		<path class="st1" d="M221.3,76.4V66.2h6V67h-5.1v3.7h4.7v0.8h-4.7v4.1h5.1v0.8H221.3z"/>
		<path class="st1" d="M238.5,70.7v1.2c0,1.5-0.3,2.7-0.9,3.4c-0.6,0.8-1.5,1.1-2.7,1.1s-2.1-0.4-2.7-1.1c-0.6-0.8-0.9-1.9-0.9-3.4
			v-1.2c0-1.5,0.3-2.7,0.9-3.4c0.6-0.8,1.5-1.2,2.7-1.2s2.1,0.4,2.7,1.2C238.2,68,238.5,69.2,238.5,70.7z M232.1,70.7v1.2
			c0,2.5,0.9,3.8,2.8,3.8c1.8,0,2.8-1.3,2.8-3.8v-1.2c0-2.5-0.9-3.8-2.8-3.8C233.1,66.9,232.1,68.2,232.1,70.7z"/>
		<path class="st1" d="M246.3,72.2v-0.8h3.6v0.4c0,1.6-0.3,2.7-0.9,3.5c-0.6,0.8-1.5,1.2-2.7,1.2c-2.4,0-3.6-1.5-3.6-4.6v-1.2
			c0-3.1,1.2-4.6,3.6-4.6c1,0,1.8,0.3,2.4,0.8c0.6,0.5,1,1.3,1.2,2.4H249c-0.3-1.6-1.2-2.4-2.7-2.4c-0.9,0-1.6,0.3-2.1,0.9
			s-0.7,1.6-0.7,2.9v1.2c0,1.3,0.2,2.3,0.7,2.9s1.1,0.9,2.1,0.9c1.8,0,2.7-1.2,2.8-3.5H246.3z"/>
		<path class="st1" d="M259.2,71.9l2.4,4.5h-1l-2.3-4.4c-0.2,0-0.4,0-0.7,0h-2.3v4.3h-0.9V66.2h3.2c1.2,0,2.1,0.3,2.7,0.8
			c0.6,0.5,0.9,1.2,0.9,2.2C261.3,70.6,260.6,71.5,259.2,71.9z M255.3,67v4.3h2.3c1.9,0,2.8-0.7,2.8-2.1c0-1.4-0.9-2.1-2.8-2.1
			H255.3z"/>
		<path class="st1" d="M266.4,73.9l-0.8,2.5h-0.9l3.5-10.2h0.8l3.5,10.2h-0.9l-0.8-2.5H266.4z M270.5,73.1l-1.9-5.5l-1.9,5.5H270.5z
			"/>
		<path class="st1" d="M279.5,76.4h-3.1V66.2h3.1c1.2,0,2.1,0.4,2.8,1.1c0.6,0.7,0.9,1.9,0.9,3.4v1.2c0,1.6-0.3,2.7-0.9,3.4
			C281.7,76,280.8,76.4,279.5,76.4z M277.3,75.6h2.2c1,0,1.7-0.3,2.1-0.9c0.5-0.6,0.7-1.5,0.7-2.8v-1.2c0-1.3-0.2-2.3-0.7-2.8
			c-0.5-0.6-1.2-0.9-2.1-0.9h-2.2V75.6z"/>
		<path class="st1" d="M294.3,67v1.9h-0.8v-2.7h5.6V67l-3.4,9.4h-0.9l3.4-9.4H294.3z"/>
		<path class="st1" d="M304,67v1.9h-0.8v-2.7h5.6V67l-3.4,9.4h-0.9l3.4-9.4H304z"/>
	</g>
	<g id="Lamborghini" class="st0">
		<path class="st1" d="M104.4,66.2h0.9v9.4h5.1v0.8h-6V66.2z"/>
		<path class="st1" d="M112.2,73.9l-0.8,2.5h-0.9l3.5-10.2h0.8l3.5,10.2h-0.9l-0.8-2.5H112.2z M116.3,73.1l-1.9-5.5l-1.9,5.5H116.3z
			"/>
		<path class="st1" d="M119.5,66.2h0.8l3.4,6.8l3.4-6.8h0.8v10.2h-0.9v-8.3l-3,6h-0.8l-3-6v8.3h-0.9V66.2z"/>
		<path class="st1" d="M130.4,76.4V66.2h3c2.3,0,3.5,0.9,3.5,2.6c0,0.6-0.2,1-0.5,1.5c-0.3,0.4-0.8,0.7-1.3,0.8
			c0.7,0.1,1.2,0.4,1.5,0.9s0.5,1,0.5,1.6c0,0.8-0.3,1.5-0.8,2c-0.6,0.6-1.4,0.8-2.6,0.8H130.4z M133.4,67h-2.2v3.7h2.4
			c0.8,0,1.4-0.2,1.8-0.5c0.4-0.3,0.6-0.8,0.6-1.4c0-0.6-0.2-1-0.6-1.3C135,67.2,134.3,67,133.4,67z M133.5,71.5h-2.2v4.1h2.5
			c0.8,0,1.5-0.2,1.9-0.5s0.7-0.9,0.7-1.5C136.3,72.2,135.4,71.5,133.5,71.5z"/>
		<path class="st1" d="M145.7,70.7v1.2c0,1.5-0.3,2.7-0.9,3.4c-0.6,0.8-1.5,1.1-2.7,1.1c-1.2,0-2.1-0.4-2.7-1.1
			c-0.6-0.8-0.9-1.9-0.9-3.4v-1.2c0-1.5,0.3-2.7,0.9-3.4c0.6-0.8,1.5-1.2,2.7-1.2c1.2,0,2.1,0.4,2.7,1.2
			C145.3,68,145.7,69.2,145.7,70.7z M139.3,70.7v1.2c0,2.5,0.9,3.8,2.8,3.8c1.8,0,2.8-1.3,2.8-3.8v-1.2c0-2.5-0.9-3.8-2.8-3.8
			C140.2,66.9,139.3,68.2,139.3,70.7z"/>
		<path class="st1" d="M152.3,71.9l2.4,4.5h-1l-2.3-4.4c-0.2,0-0.4,0-0.7,0h-2.3v4.3h-0.9V66.2h3.2c1.2,0,2.1,0.3,2.7,0.8
			c0.6,0.5,0.9,1.2,0.9,2.2C154.4,70.6,153.7,71.5,152.3,71.9z M148.4,67v4.3h2.3c1.9,0,2.8-0.7,2.8-2.1c0-1.4-0.9-2.1-2.8-2.1
			H148.4z"/>
		<path class="st1" d="M159.4,72.2v-0.8h3.6v0.4c0,1.6-0.3,2.7-0.9,3.5c-0.6,0.8-1.5,1.2-2.7,1.2c-2.4,0-3.6-1.5-3.6-4.6v-1.2
			c0-3.1,1.2-4.6,3.6-4.6c1,0,1.8,0.3,2.4,0.8c0.6,0.5,1,1.3,1.2,2.4h-0.8c-0.3-1.6-1.2-2.4-2.7-2.4c-0.9,0-1.6,0.3-2.1,0.9
			s-0.7,1.6-0.7,2.9v1.2c0,1.3,0.2,2.3,0.7,2.9s1.1,0.9,2.1,0.9c1.8,0,2.7-1.2,2.8-3.5H159.4z"/>
		<path class="st1" d="M164.9,66.2h0.9v4.5h5.1v-4.5h0.9v10.2h-0.9v-4.9h-5.1v4.9h-0.9V66.2z"/>
		<path class="st1" d="M174.2,66.2h0.9v10.2h-0.9V66.2z"/>
		<path class="st1" d="M183.5,74.8v-8.6h0.9v10.2h-0.8l-5.1-8.5v8.5h-0.9V66.2h0.8L183.5,74.8z"/>
		<path class="st1" d="M186.9,66.2h0.9v10.2h-0.9V66.2z"/>
		<path class="st1" d="M200.5,69.3h-0.8c-0.3-1.6-1.2-2.4-2.7-2.4c-0.9,0-1.6,0.3-2.1,0.9s-0.7,1.6-0.7,2.9v1.2
			c0,1.3,0.2,2.3,0.7,2.9s1.1,0.9,2.1,0.9c1.5,0,2.4-0.8,2.7-2.4h0.8c-0.1,1.1-0.5,1.9-1.2,2.4s-1.4,0.8-2.4,0.8
			c-2.4,0-3.6-1.5-3.6-4.6v-1.2c0-3.1,1.2-4.6,3.6-4.6c1,0,1.8,0.3,2.4,0.8C199.9,67.5,200.3,68.3,200.5,69.3z"/>
		<path class="st1" d="M202.5,73.9l-0.8,2.5h-0.9l3.5-10.2h0.8l3.5,10.2h-0.9l-0.8-2.5H202.5z M206.6,73.1l-1.9-5.5l-1.9,5.5H206.6z
			"/>
		<path class="st1" d="M214.6,71.9l2.4,4.5h-1l-2.3-4.4c-0.2,0-0.4,0-0.7,0h-2.3v4.3h-0.9V66.2h3.2c1.2,0,2.1,0.3,2.7,0.8
			c0.6,0.5,0.9,1.2,0.9,2.2C216.7,70.6,216,71.5,214.6,71.9z M210.7,67v4.3h2.3c1.9,0,2.8-0.7,2.8-2.1c0-1.4-0.9-2.1-2.8-2.1H210.7z
			"/>
		<path class="st1" d="M226.7,71.9l2.4,4.5h-1l-2.3-4.4c-0.2,0-0.4,0-0.7,0h-2.3v4.3H222V66.2h3.2c1.2,0,2.1,0.3,2.7,0.8
			c0.6,0.5,0.9,1.2,0.9,2.2C228.8,70.6,228.1,71.5,226.7,71.9z M222.8,67v4.3h2.3c1.9,0,2.8-0.7,2.8-2.1c0-1.4-0.9-2.1-2.8-2.1
			H222.8z"/>
		<path class="st1" d="M230.6,76.4V66.2h6V67h-5.1v3.7h4.7v0.8h-4.7v4.1h5.1v0.8H230.6z"/>
		<path class="st1" d="M244.3,74.8v-8.6h0.9v10.2h-0.8l-5.1-8.5v8.5h-0.9V66.2h0.8L244.3,74.8z"/>
		<path class="st1" d="M246.4,67v-0.8h7.3V67h-3.2v9.4h-0.9V67H246.4z"/>
		<path class="st1" d="M255,73.9l-0.8,2.5h-0.9l3.5-10.2h0.8l3.5,10.2h-0.9l-0.8-2.5H255z M259,73.1l-1.9-5.5l-1.9,5.5H259z"/>
		<path class="st1" d="M262.3,66.2h0.9v9.4h5.1v0.8h-6V66.2z"/>
		<path class="st1" d="M276,76.4h-3.1V66.2h3.1c1.2,0,2.1,0.4,2.8,1.1c0.6,0.7,0.9,1.9,0.9,3.4v1.2c0,1.6-0.3,2.7-0.9,3.4
			C278.1,76,277.2,76.4,276,76.4z M273.8,75.6h2.2c1,0,1.7-0.3,2.1-0.9c0.5-0.6,0.7-1.5,0.7-2.8v-1.2c0-1.3-0.2-2.3-0.7-2.8
			c-0.5-0.6-1.2-0.9-2.1-0.9h-2.2V75.6z"/>
		<path class="st1" d="M281.6,72.2v-6h0.9v6c0,2.3,0.9,3.5,2.8,3.5c1.8,0,2.8-1.2,2.8-3.5v-6h0.9v6c0,1.4-0.3,2.5-0.9,3.2
			c-0.6,0.7-1.5,1.1-2.7,1.1c-1.2,0-2.1-0.4-2.7-1.1C281.9,74.7,281.6,73.7,281.6,72.2z"/>
		<path class="st1" d="M291.2,76.4V66.2h3c2.3,0,3.5,0.9,3.5,2.6c0,0.6-0.2,1-0.5,1.5c-0.3,0.4-0.8,0.7-1.3,0.8
			c0.7,0.1,1.2,0.4,1.5,0.9s0.5,1,0.5,1.6c0,0.8-0.3,1.5-0.8,2c-0.6,0.6-1.4,0.8-2.6,0.8H291.2z M294.2,67h-2.2v3.7h2.4
			c0.8,0,1.4-0.2,1.8-0.5s0.6-0.8,0.6-1.4c0-0.6-0.2-1-0.6-1.3C295.8,67.2,295.2,67,294.2,67z M294.3,71.5h-2.2v4.1h2.5
			c0.8,0,1.5-0.2,1.9-0.5s0.7-0.9,0.7-1.5C297.2,72.2,296.2,71.5,294.3,71.5z"/>
		<path class="st1" d="M300.4,73.9l-0.8,2.5h-0.9l3.5-10.2h0.8l3.5,10.2h-0.9l-0.8-2.5H300.4z M304.4,73.1l-1.9-5.5l-1.9,5.5H304.4z
			"/>
		<path class="st1" d="M307.8,66.2h0.9v10.2h-0.9V66.2z"/>
	</g>
</g>
<g id="Royal">
	<g>
		<g>
			<path class="st3" d="M110.3,56.5V7.8h-5.9v-2h20.5c2.7,0,4.9,0.3,6.6,1s3.2,2,4.4,4.1c1.2,2.1,1.9,4.4,1.9,7.1
				c0,3.3-0.9,6-2.7,8.1c-1.8,2.1-4.9,3.6-9.2,4.7v0.2c3.1,0.9,5.7,2.5,7.7,5c2,2.5,3,6.7,3,12.7c0,3.4,0.3,5.6,0.8,6.6
				s1.4,1.4,2.4,1.4c0.6,0,1.4-0.2,2.3-0.6V58c-1.6,0.8-3.2,1.2-4.7,1.2c-3.1,0-5.2-1.2-6.5-3.6c-1.3-2.4-1.9-4.8-1.8-7.1l0.1-6.7
				c0-2.3-0.5-4.6-1.6-6.9c-1-2.3-3.4-3.4-7.1-3.4h-3.5v25.1h5.9v2h-18.4v-2H110.3z M116.9,7.8v21.8h5c2.2,0,3.8-0.2,4.9-0.6
				c1.1-0.4,2-1.5,2.7-3.2c0.7-1.7,1-4.5,1-8.2c0-3.1-0.3-5.3-1-6.7c-0.7-1.4-1.5-2.3-2.5-2.6c-1-0.3-2.3-0.5-3.8-0.5H116.9z"/>
			<path class="st3" d="M189.9,5.8h18.7v2h-6.2l10.9,23.3l10.8-23.3h-6.8v-2h13.2v2h-4.8L214,33v23.5h6.2v2h-19.2v-2h6.3V34.4
				L194.9,7.8h-5V5.8z"/>
			<path class="st3" d="M288.9,7.8v48.8h8.4c1.6,0,2.9-0.2,3.8-0.5c0.9-0.3,1.8-1.2,2.7-2.5s1.6-2.9,2.1-4.7c0.5-1.8,1-4.3,1.6-7.6
				h1.3l-1,17.2h-31.4v-2h5.9V7.8h-5.9v-2h18.7v2H288.9z"/>
		</g>
		<g>
			<path class="st3" d="M167.8,58.4c-4.6,0-8.5-2.7-11.7-8.2c-3.2-5.5-4.8-11.3-4.8-17.5c0-7.5,1.7-13.8,5.1-19.1
				c3.4-5.3,7.3-7.9,11.8-7.9c4.2,0,8,2.7,11.3,8c3.3,5.4,5,11.4,5,18.3c0,7-1.7,13.2-5,18.5C176,55.8,172.1,58.4,167.8,58.4z
				 M167.9,7.7c-1.9,0-3.7,0.6-5.2,1.9c-1.6,1.3-2.6,3.5-3.2,6.6c-0.6,3.1-0.8,8.6-0.8,16.4c0,5.4,0.2,9.7,0.5,12.9
				c0.3,3.2,1.1,5.9,2.4,8c1.3,2.1,3.3,3.2,6.1,3.2c1.7,0,3.4-0.6,5.1-1.9c1.7-1.3,2.8-3.8,3.3-7.5c0.5-3.7,0.8-9.5,0.8-17.3
				c0-7-0.3-11.9-1-14.6c-0.6-2.7-1.7-4.6-3.1-5.8C171.4,8.3,169.8,7.7,167.9,7.7z"/>
		</g>
		<g>
			<path class="st3" d="M252.2,42.4h-11.5L237,56.6h6.7v2h-13.2v-2h5l13.2-50.8h0.8l12.7,50.8h4.9v2h-17.3v-2h5.9L252.2,42.4z
				 M241.2,40.5h10.5l-5.1-20.6h-0.1L241.2,40.5z"/>
		</g>
	</g>
</g>
<g id="Crowne">
	<g>
		<path class="st4" d="M46.2,6.2c0.1-0.1,0.4-0.3,0.8-0.4c0.4-0.1,0.7,0,0.9,0c0.4,0.1,0.7,0.3,0.8,0.3c0.4,0.2,0.6,0.6,0.7,0.7
			c1.1,1.7,2.3,4.3,2.3,4.3c0.1,0.2,0.5,1,1.3,2.7c0.4,0.8,0.8,1.6,1.4,2.8c5.6,11.3,5.2,10.5,5.8,11.8c1.4,2.9,2.9,5.8,4.3,8.7
			c0.2,0.4,0.4,0.4,0.7,0.2c2.3-1.6,4.6-3.2,7-4.8c2.4-1.6,4.8-3.2,7.2-4.9c2.4-1.6,4.7-3.3,7.1-4.9c0.5-0.4,1-0.7,1.6-1
			c1.4-0.7,2.7-0.1,3.4,1c0.3,0.5,0.3,1.3,0,1.9c-0.7,1.1-1.2,2.4-1.7,3.6c-0.9,2.1-1.8,4.2-2.7,6.3c-1,2.4-2,4.7-3.1,7.1
			c-1.1,2.6-2.3,5.2-3.4,7.8c-1.6,3.8-3.3,7.6-4.9,11.4c-0.5,1.2-1.3,1.7-2.6,1.7c-17.2,0-34.4,0-51.6,0c-1.1,0-1.7-0.4-2.1-1.3
			c-1.2-2.6-2.3-5.3-3.5-8c-1.4-3.3-2.9-6.5-4.2-9.8c-0.8-2-1.7-3.9-2.5-5.9C7.5,34,6,30.4,4.4,26.8c-0.3-0.7-1.8-2.7-1.1-3.8
			c0.1-0.1,0.2-0.2,0.2-0.3c0.1-0.1,0.1-0.1,0.2-0.2c0,0,0.2-0.1,0.3-0.3c0.1,0,0.2-0.2,0.6-0.3c0.3-0.1,0.4-0.2,0.7-0.2
			c0.4-0.1,0.8,0,1,0.1c0.4,0.1,0.7,0.3,0.8,0.4c4.9,3.2,5.8,4,5.8,4c2.5,1.7,5,3.5,7.5,5.3c3,2.1,5.9,4.2,8.9,6.3
			c0.4,0.3,0.7,0.4,1-0.2c1.3-2.6,2.6-5.2,3.8-7.8c1.4-2.9,2.9-5.8,4.3-8.7c0,0,4.8-10.8,6.5-13.3c0.3-0.5,0.6-0.9,0.6-0.9
			C45.8,6.6,46,6.4,46.2,6.2z M47.3,58.5c1.9,0,3.9,0,5.8,0c5.9,0,11.7,0,17.6,0c0.6,0,1-0.2,1.3-0.8c0.9-2.2,1.9-4.4,2.9-6.6
			c1.6-3.7,3.2-7.5,4.9-11.2c1.3-3,2.6-6.1,4-9.1c0.1-0.1,0.2-0.3,0.1-0.4c-0.2-0.2-0.4,0-0.5,0.2c-2.9,2.2-6,4.1-9,6.2
			c-2.4,1.7-4.9,3.4-7.3,5c-0.6,0.4-1.3,1-2,1.3c-1.5,0.6-2.7,0.1-3.5-1.6c-1.3-2.6-2.6-5.2-3.9-7.8c-1.6-3.3-3.2-6.6-4.8-9.9
			c-1.1-2.2-2.2-4.4-3.3-6.7c-0.5-1-1-2-1.5-3c-0.1-0.2-0.2-0.5-0.5-0.5c-0.3,0-0.3,0.3-0.4,0.5c-0.1,0.2-0.2,0.5-0.3,0.8
			c-1.6,3.3-3.3,6.6-4.9,10c-1.1,2.2-2.1,4.3-3.2,6.5c-1,1.9-2,3.9-2.9,5.8c-0.9,1.7-1.7,3.5-2.6,5.2c-0.6,1.2-2.4,1.7-3.6,0.8
			c-2-1.4-4-2.7-5.9-4.1c-3.9-2.8-7.8-5.6-11.7-8.3c-0.2-0.1-0.3-0.3-0.5-0.1c-0.2,0.2,0,0.3,0,0.5c1.2,2.4,2.2,4.9,3.3,7.4
			c1.3,3,2.6,6,3.9,9c1.5,3.4,3,6.8,4.4,10.3c0.2,0.6,0.6,0.8,1.3,0.8C31.8,58.5,39.6,58.5,47.3,58.5z"/>
	</g>
	<path class="st4" d="M73.6,66.2H21.4c-0.3,0-0.6,0.3-0.6,0.6v9c0,0.3,0.3,0.6,0.6,0.6h52.3c0.3,0,0.6-0.3,0.6-0.6v-9
		C74.2,66.5,74,66.2,73.6,66.2z M70.2,72.3c0,0.3-0.3,0.6-0.6,0.6H25.4c-0.3,0-0.6-0.3-0.6-0.6v-2c0-0.3,0.3-0.6,0.6-0.6h44.3
		c0.3,0,0.6,0.3,0.6,0.6V72.3z"/>
</g>
</svg>
